<svg width="480" height="460" viewBox="0 0 480 460" fill="none" xmlns="http://www.w3.org/2000/svg">
<rect width="480" height="460" fill="white"/>
<path d="M192.452 117.668C188.788 113.965 185.123 110.262 181.482 106.536C180.667 105.708 179.401 106.996 180.215 107.824C183.879 111.527 187.544 115.23 191.186 118.956C192 119.784 193.267 118.496 192.452 117.668Z" fill="#F674B4"/>
<path d="M265.335 97.244C263.186 99.774 261.037 102.281 258.888 104.811C258.119 105.708 259.431 106.996 260.177 106.099C262.326 103.569 264.475 101.062 266.624 98.532C267.393 97.658 266.081 96.347 265.335 97.244Z" fill="#7BAEED"/>
<path d="M284.879 110.745C279.54 113.206 274.224 115.69 268.886 118.151C267.823 118.657 268.75 120.221 269.813 119.738C275.152 117.277 280.468 114.793 285.806 112.332C286.892 111.826 285.964 110.262 284.879 110.745Z" fill="#F674B4"/>
<path d="M272.347 250.217C257.304 252.356 258.503 275.195 275.129 275.08C293.994 274.942 290.941 247.549 272.347 250.217Z" fill="#FFCB56"/>
<path d="M183.336 263.856L185.983 271.883L193.561 265.742L183.336 263.856Z" fill="#F674B4"/>
<path d="M64.2639 178.227L72.0679 197.984L84.803 181.792L64.2639 178.227Z" fill="#7BAEED"/>
<path d="M377.372 138.253L359.842 160.678L381.534 180.389L403.024 160.678L377.372 138.253Z" fill="#F674B4"/>
<path d="M366.899 155.066H355.702L353.915 168.452L364.434 171.994L366.899 155.066Z" fill="#FFCB56"/>
<path d="M87.2008 146.671C86.7031 150.213 86.2055 153.732 85.7079 157.274C85.5495 158.424 87.2687 158.93 87.4496 157.757C87.9473 154.215 88.4449 150.696 88.9425 147.154C89.1009 146.004 87.3591 145.498 87.2008 146.671Z" fill="#FFCB56"/>
<path d="M371.061 128.294C370.88 127.144 369.139 127.627 369.32 128.777C369.568 130.295 369.817 131.813 370.066 133.331C370.247 134.481 371.989 133.998 371.808 132.848C371.559 131.33 371.31 129.812 371.061 128.294Z" fill="#7BAEED"/>
<path d="M408.204 173.075C405.467 173.328 402.73 173.581 400.015 173.834C398.861 173.949 398.861 175.766 400.015 175.651C402.752 175.398 405.489 175.145 408.204 174.892C409.335 174.8 409.357 172.983 408.204 173.075Z" fill="#7BAEED"/>
<path d="M75.2573 162.541C73.7644 161.529 72.2714 160.517 70.7785 159.528C69.8058 158.884 68.901 160.448 69.8737 161.115C71.3666 162.127 72.8596 163.139 74.3525 164.128C75.3252 164.772 76.23 163.185 75.2573 162.541Z" fill="#FFCB56"/>
<path d="M165.15 121.532C140.268 128.386 117.534 141.519 98.9859 159.735C98.1489 160.563 99.4157 161.851 100.253 161.023C118.598 143.037 141.037 130.088 165.625 123.303C166.733 122.981 166.258 121.233 165.15 121.532Z" fill="#7BAEED"/>
<path d="M343.352 129.95C333.761 121.693 322.632 115.92 310.394 112.93C309.263 112.654 308.788 114.425 309.919 114.701C321.84 117.622 332.72 123.188 342.062 131.238C342.945 131.997 344.234 130.709 343.352 129.95Z" fill="#7BAEED"/>
<path d="M305.757 356.799C305.282 356.799 304.875 356.408 304.852 355.902L301.572 238.924C301.549 238.418 301.957 238.004 302.454 237.981C302.929 237.981 303.359 238.372 303.382 238.878L306.662 355.856C306.684 356.362 306.277 356.776 305.779 356.799C305.757 356.799 305.757 356.799 305.757 356.799Z" fill="#000200"/>
<path d="M160.943 361.192C160.445 361.192 160.038 360.778 160.038 360.272V342.631C160.038 342.125 160.445 341.711 160.943 341.711C161.44 341.711 161.847 342.125 161.847 342.631V360.272C161.847 360.801 161.44 361.192 160.943 361.192Z" fill="#000200"/>
<path d="M215.819 293.319C215.796 293.319 215.774 293.319 215.751 293.319L190.213 291.157C189.964 291.134 189.738 291.019 189.602 290.835C189.444 290.651 189.376 290.398 189.399 290.145L191.005 275.356C191.05 274.896 191.435 274.551 191.887 274.551H215.819C216.317 274.551 216.724 274.965 216.724 275.471V292.422C216.724 292.675 216.611 292.928 216.43 293.089C216.249 293.227 216.023 293.319 215.819 293.319ZM191.254 289.409L214.914 291.41V276.368H192.679L191.254 289.409Z" fill="#000200"/>
<path d="M280.128 268.778C271.103 268.778 266.511 262.269 266.081 256.197C265.651 250.24 268.999 243.294 277.346 242.098C283.182 241.247 288.272 243.271 291.303 247.595C294.243 251.781 294.718 257.531 292.501 261.947C290.307 266.317 285.942 268.755 280.241 268.801C280.219 268.778 280.174 268.778 280.128 268.778ZM277.595 243.915C270.379 244.95 267.506 250.93 267.868 256.082C268.253 261.51 272.211 266.961 280.128 266.961C280.174 266.961 280.219 266.961 280.264 266.961C285.263 266.915 289.063 264.845 290.941 261.119C292.863 257.324 292.434 252.31 289.878 248.676C288.317 246.445 284.652 242.903 277.595 243.915Z" fill="#000200"/>
<path d="M157.188 266.294C156.554 261.694 154.451 255.139 157.007 249.987C160.648 242.673 166.846 234.6 169.176 237.406C172.999 241.983 183.54 308.568 181.595 327.451C179.649 346.334 161.621 355.902 161.621 355.902L160.965 342.654C160.965 342.654 169.719 334.328 170.194 318.113C170.669 301.898 160.875 256.266 160.875 256.266L157.188 266.294Z" fill="#000200"/>
<path d="M312.701 326.002C311.367 332.488 308.539 337.778 305.327 341.987C305.214 340.17 305.101 338.33 304.988 336.513C304.377 327.106 301.64 242.811 302.771 240.005C301.075 231.196 306.888 241.569 309.829 248.262C312.317 253.92 315.303 261.28 314.873 268.525C315.348 290.858 314.873 315.468 312.701 326.002Z" fill="#000200"/>
<path d="M145.357 297.275C144.86 297.275 144.452 296.861 144.452 296.355L144.407 226.826C144.407 221.559 148.456 217.327 153.614 217.189C175.759 216.614 175.849 216.729 176.234 217.212C176.415 217.442 176.483 217.741 176.415 218.017C176.302 218.5 175.804 218.822 175.329 218.684C175.306 218.684 175.284 218.661 175.261 218.661C174.65 218.615 171.212 218.546 153.659 219.029C149.474 219.144 146.194 222.571 146.194 226.826L146.239 296.355C146.262 296.861 145.855 297.275 145.357 297.275Z" fill="#000200"/>
<path d="M308.765 259.072C308.268 259.072 307.861 258.658 307.861 258.152V225.124C307.861 220.823 304.422 217.327 300.192 217.327C299.695 217.327 299.287 216.913 299.287 216.407C299.287 215.901 299.695 215.487 300.192 215.487C305.418 215.487 309.648 219.811 309.648 225.101V258.129C309.648 258.658 309.263 259.072 308.765 259.072Z" fill="#000200"/>
<path d="M149.293 361.192C148.795 361.192 148.388 360.778 148.388 360.272V353.073C148.388 352.567 148.795 352.153 149.293 352.153C149.791 352.153 150.198 352.567 150.198 353.073V360.272C150.198 360.801 149.791 361.192 149.293 361.192Z" fill="#000200"/>
<path d="M286.032 216.43C285.172 202.607 274.36 204.332 274.36 204.332C271.352 196.075 263.57 195.04 263.57 195.04C262.914 184.943 257.96 174.501 236.426 175.628C214.892 176.755 205.549 186.116 206.296 200.721C197.316 200.836 194.104 206.356 194.149 209.99C192.407 205.942 191.932 201.112 191.887 195.546C191.615 170.867 203.333 162.771 247.827 162.334C284.924 161.966 288.566 170.062 289.629 188.6C290.33 201.296 290.42 210.381 286.032 216.43Z" fill="#000200"/>
<path d="M249.93 227.079C199.465 227.079 191.208 217.787 190.982 195.569C190.869 184.897 192.973 177.882 197.836 172.845C205.391 165.002 219.868 161.69 247.804 161.437V162.357V161.437C285.037 161.092 289.402 169.418 290.511 188.554C291.28 202.124 291.37 212.221 285.489 218.569C279.947 224.526 269.316 227.079 249.93 227.079ZM247.827 163.254C220.411 163.507 206.319 166.658 199.125 174.11C194.624 178.779 192.656 185.38 192.769 195.546C192.995 215.74 198.696 225.239 249.93 225.239C268.773 225.239 279.02 222.87 284.177 217.304C289.583 211.485 289.47 201.756 288.724 188.646C287.751 171.718 285.467 162.909 247.827 163.254Z" fill="#000200"/>
<path d="M215.796 213.026C215.683 213.026 215.548 213.003 215.434 212.957C214.982 212.75 214.779 212.221 214.982 211.761C218.172 204.332 226.156 186.093 226.156 186.093C226.36 185.633 226.88 185.426 227.31 185.61C227.559 185.702 251.83 195.73 263.412 193.913C263.909 193.844 264.362 194.189 264.43 194.672C264.498 195.178 264.181 195.638 263.683 195.707C252.712 197.432 231.879 189.405 227.446 187.634C225.862 191.245 219.416 205.988 216.611 212.497C216.475 212.819 216.158 213.026 215.796 213.026Z" fill="#000200"/>
<path d="M205.527 220.133C205.097 220.133 204.713 219.811 204.645 219.374C204.351 217.465 204.78 215.74 205.889 214.383C207.653 212.267 211.001 211.209 215.796 211.209C216.294 211.209 216.701 211.623 216.701 212.129C216.701 212.635 216.294 213.049 215.796 213.049C211.589 213.049 208.648 213.923 207.246 215.579C206.454 216.522 206.183 217.695 206.409 219.098C206.477 219.604 206.16 220.064 205.663 220.156C205.617 220.133 205.572 220.133 205.527 220.133Z" fill="#000200"/>
<path d="M244.207 222.893C243.71 222.893 243.303 222.479 243.303 221.973C243.303 221.467 243.71 221.053 244.207 221.053C245.881 221.053 247.261 220.593 247.917 219.834C248.279 219.397 248.392 218.868 248.302 218.224C248.053 216.775 244.909 215.97 243.416 215.809C242.963 215.763 242.624 215.372 242.624 214.912V206.54C242.624 206.034 243.031 205.62 243.529 205.62C244.026 205.62 244.434 206.034 244.434 206.54V214.107C246.107 214.406 249.681 215.349 250.089 217.925C250.292 219.098 250.021 220.179 249.319 221.007C248.279 222.226 246.469 222.893 244.207 222.893Z" fill="#000200"/>
<path d="M231.631 201.917C230.16 202.078 228.735 202.331 227.31 202.768C226.202 203.113 226.948 204.769 228.057 204.424C229.301 204.033 230.613 203.849 231.925 203.711C233.078 203.573 232.784 201.779 231.631 201.917Z" fill="#000200"/>
<path d="M257.598 202.607C256.671 201.986 255.653 201.549 254.771 200.859C253.866 200.146 252.599 201.457 253.527 202.17C254.522 202.952 255.676 203.481 256.716 204.194C257.689 204.838 258.549 203.228 257.598 202.607Z" fill="#000200"/>
<path d="M264.792 225.929C264.294 225.929 263.887 225.515 263.887 225.032C263.819 216.43 263.593 209.116 262.665 195.109C261.783 181.746 253.21 175.674 236.471 176.548C224.89 177.146 216.611 180.159 211.86 185.518C208.445 189.382 206.861 194.465 207.178 200.675C207.201 201.181 206.816 201.618 206.319 201.641C205.776 201.641 205.391 201.273 205.368 200.767C205.029 194.074 206.748 188.531 210.503 184.299C215.593 178.572 224.279 175.352 236.358 174.731C254.047 173.811 263.502 180.619 264.43 194.994C265.357 209.001 265.583 216.614 265.651 225.032C265.697 225.515 265.312 225.929 264.792 225.929C264.792 225.929 264.814 225.929 264.792 225.929Z" fill="#000200"/>
<path d="M163.793 250.263C163.657 250.263 163.521 250.24 163.408 250.171C162.956 249.964 162.775 249.412 162.978 248.952L163.544 247.756C167.005 240.488 177.523 218.408 176.867 198.122C176.234 178.986 176.415 165.83 184.038 157.688C192.226 148.948 208.196 145.797 247.352 145.176C279.902 144.555 298.405 146.901 300.622 202.584C300.758 206.149 300.871 209.461 300.961 212.543C301.323 224.342 301.572 232.875 303.63 239.729C303.766 240.212 303.517 240.718 303.042 240.879C302.567 241.017 302.07 240.764 301.911 240.281C299.785 233.197 299.536 224.572 299.174 212.612C299.084 209.53 298.971 206.218 298.835 202.653C296.573 146.027 277.007 146.418 247.397 146.993C208.807 147.591 193.154 150.604 185.35 158.93C178.202 166.543 178.066 179.377 178.677 198.053C179.355 218.776 168.679 241.178 165.172 248.538L164.607 249.734C164.449 250.079 164.132 250.263 163.793 250.263Z" fill="#000200"/>
<path d="M194.149 210.013L193.244 209.99C193.221 207.782 194.171 205.482 195.913 203.665C197.565 201.94 200.709 199.87 206.296 199.801C206.748 199.801 207.201 200.192 207.201 200.698C207.201 201.204 206.816 201.618 206.319 201.618C201.342 201.687 198.628 203.458 197.203 204.93C195.823 206.356 195.031 208.242 195.054 209.967L194.149 210.013Z" fill="#000200"/>
<path d="M285.195 217.833C285.195 217.902 285.195 217.948 285.218 218.017C285.761 217.488 286.349 216.982 286.959 216.522C286.959 216.476 286.959 216.43 286.959 216.384C286.665 211.508 285.127 207.92 282.413 205.712C279.631 203.435 276.418 203.297 274.993 203.366C271.668 195.293 264.045 194.166 263.729 194.12C263.231 194.051 262.779 194.396 262.711 194.902C262.643 195.408 262.982 195.868 263.48 195.937C263.774 195.983 270.763 197.041 273.568 204.654C273.727 205.068 274.111 205.298 274.541 205.229C274.586 205.229 278.319 204.677 281.304 207.138C283.589 209.024 284.901 212.152 285.172 216.499C285.172 216.936 285.195 217.373 285.195 217.833Z" fill="#000200"/>
<path d="M230.024 220.317C228.78 220.317 227.491 220.018 226.315 219.42C223.193 217.833 221.384 214.613 221.384 210.565C221.384 210.059 221.791 209.645 222.288 209.645C222.786 209.645 223.193 210.059 223.193 210.565C223.216 213.9 224.641 216.522 227.129 217.787C229.255 218.868 231.744 218.684 233.485 217.373C235.476 215.855 236.222 213.095 235.612 209.599C235.521 209.093 235.86 208.633 236.335 208.541C236.833 208.449 237.286 208.794 237.376 209.277C238.371 214.958 236.041 217.695 234.548 218.822C233.259 219.811 231.653 220.317 230.024 220.317Z" fill="#000200"/>
<path d="M255.495 219.282C254.386 219.282 253.278 219.029 252.26 218.477C249.342 216.982 247.691 213.67 247.691 209.438C247.691 208.932 248.098 208.518 248.596 208.518C249.093 208.518 249.5 208.932 249.5 209.438C249.5 212.957 250.812 215.671 253.097 216.844C254.884 217.764 256.988 217.603 258.594 216.43C260.562 214.981 261.399 212.244 260.878 208.932C260.81 208.426 261.127 207.966 261.625 207.874C262.122 207.805 262.575 208.127 262.665 208.633C263.299 212.635 262.213 216.016 259.657 217.902C258.39 218.822 256.965 219.282 255.495 219.282Z" fill="#000200"/>
<path d="M236.697 213.946C236.381 213.946 236.064 213.785 235.906 213.463C235.657 213.026 235.838 212.474 236.268 212.221C236.539 212.06 243.054 208.518 248.958 211.37C249.41 211.577 249.591 212.129 249.387 212.589C249.184 213.049 248.641 213.233 248.188 213.026C243.099 210.565 237.195 213.785 237.127 213.831C236.992 213.9 236.833 213.946 236.697 213.946Z" fill="#000200"/>
<path d="M251.921 209.783L251.74 211.6C251.491 213.946 255.065 214.314 255.314 211.991L255.495 210.174C255.721 207.828 252.147 207.437 251.921 209.783Z" fill="#000200"/>
<path d="M227.695 210.358L227.514 212.175C227.265 214.521 230.839 214.889 231.088 212.566L231.269 210.749C231.517 208.403 227.943 208.012 227.695 210.358Z" fill="#000200"/>
<path d="M131.287 306.981C130.066 306.981 128.777 306.843 127.397 306.521C118.665 304.566 115.725 289.616 112.309 272.32C111.359 267.467 110.364 262.453 109.21 257.577C109.007 256.772 108.826 256.013 108.645 255.208C106.541 246.376 104.46 238.004 101.791 232.806C94.3261 218.155 81.0933 208.495 76.0942 207.437C75.3478 207.276 75.0085 207.368 74.9406 207.414C74.8275 207.69 74.4429 209.369 79.5099 214.659C81.8171 217.051 82.36 220.593 80.9349 223.675C79.8039 226.136 79.3741 228.39 79.6682 230.414C79.7361 230.92 79.3968 231.38 78.9217 231.449C78.4241 231.518 77.9717 231.173 77.9038 230.69C77.5645 228.298 78.0396 225.676 79.3289 222.893C80.4373 220.501 80.0075 217.764 78.2431 215.924C74.081 211.577 72.475 208.541 73.3346 206.632C73.5155 206.241 74.0132 205.551 75.2799 205.505C75.3025 205.505 75.3478 205.505 75.3704 205.505C80.5278 205.505 95.4119 216.292 103.397 231.955C106.156 237.337 108.283 245.824 110.409 254.771C110.59 255.553 110.771 256.335 110.975 257.117C112.128 262.039 113.123 267.076 114.096 271.952C117.24 287.937 120.204 303.025 127.804 304.727C142.213 307.97 147.868 291.18 154.383 271.768C156.961 264.132 159.608 256.22 163.001 248.929C163.205 248.469 163.747 248.285 164.2 248.492C164.652 248.699 164.833 249.251 164.63 249.711C161.282 256.887 158.635 264.753 156.102 272.343C150.107 290.122 144.452 306.981 131.287 306.981Z" fill="#000200"/>
<path d="M66.5711 228.505C66.458 228.505 66.3449 228.482 66.2318 228.436C61.1875 226.274 47.2535 221.329 43.3176 224.273C42.5712 224.848 42.2545 225.722 42.3676 226.964C42.4128 227.47 42.0509 227.907 41.5532 227.953C41.0556 227.999 40.6258 227.631 40.5806 227.125C40.3544 224.756 41.3497 223.445 42.2545 222.801C45.738 220.202 54.017 222.18 60.0792 224.181C58.1338 223.284 56.0754 222.548 54.2205 221.881C50.3751 220.524 47.5702 219.535 46.9821 217.695C46.8237 217.212 46.7559 216.43 47.3893 215.487C51.099 209.944 72.95 218.454 79.5551 221.214C80.0075 221.398 80.2337 221.927 80.0528 222.41C79.8718 222.87 79.3289 223.1 78.8765 222.916C63.0876 216.361 50.737 213.739 48.8822 216.545C48.6334 216.913 48.6786 217.074 48.7012 217.143C49.0179 218.109 52.0942 219.213 54.8087 220.179C59.0386 221.674 64.3318 223.56 67.2724 227.01C67.5438 227.332 67.5664 227.792 67.3176 228.137C67.1367 228.367 66.8652 228.505 66.5711 228.505Z" fill="#000200"/>
<path d="M62.2281 231.357C60.8257 230.989 59.1291 230.437 57.3195 229.885C50.3299 227.677 42.4128 225.17 39.902 228.114C38.771 229.425 38.8841 231.472 40.2413 234.37C40.2413 234.393 40.2639 234.393 40.2639 234.416C40.7842 234.393 41.3045 234.416 41.8021 234.462C41.9604 234.209 41.9831 233.864 41.8473 233.588C40.8521 231.495 40.6485 230 41.2366 229.31C42.9783 227.263 51.2573 229.908 56.754 231.633C58.5863 232.208 60.3054 232.76 61.7531 233.151C62.2281 233.266 62.7258 232.99 62.8389 232.507C62.9972 231.978 62.7258 231.472 62.2281 231.357Z" fill="#000200"/>
<path d="M125.542 361.192C122.466 361.192 119.231 360.87 115.815 360.18C82.066 353.303 76.0264 305.693 73.131 282.831C72.8596 280.669 72.6108 278.76 72.3845 277.173C71.9548 274.275 71.4571 271.515 70.9369 269.008C70.8238 268.364 70.688 267.743 70.5297 267.122C68.0867 256.174 64.8973 248.883 61.7531 247.066C58.1791 244.996 53.6777 243.8 49.6965 242.742C44.132 241.27 39.7436 240.097 38.8388 237.038C38.5674 236.118 38.296 234.784 39.1555 233.841C40.7842 232.07 45.0141 232.944 58.2017 235.957C58.6767 236.072 58.9934 236.555 58.8803 237.038C58.7672 237.521 58.2922 237.843 57.8172 237.728C48.6786 235.635 41.4854 233.979 40.4901 235.06C40.3318 235.244 40.3544 235.75 40.5806 236.486C41.1913 238.556 45.557 239.729 50.1715 240.948C54.2432 242.029 58.8803 243.248 62.6579 245.456C67.5665 248.285 70.8011 259.969 72.2941 266.662C72.4524 267.283 72.6108 267.973 72.7239 268.64C73.2667 271.17 73.7644 273.953 74.1942 276.897C74.4204 278.507 74.6692 280.416 74.9406 282.601C77.7908 305.049 83.7173 351.785 116.2 358.409C151.51 365.631 168.226 330.326 168.385 329.958C168.588 329.498 169.131 329.314 169.583 329.521C170.036 329.728 170.217 330.28 170.013 330.74C169.832 331.062 155.559 361.192 125.542 361.192Z" fill="#000200"/>
<path d="M71.3892 266.846C71.5702 267.49 71.6833 268.134 71.819 268.778C78.967 270.112 86.3864 269.905 93.5118 267.996C99.8906 266.271 106.428 262.683 110.138 257.347C109.934 256.542 109.753 255.76 109.572 254.978C105.727 261.97 96.5655 265.834 88.8068 267.168C82.9708 268.18 77.0895 268.042 71.3892 266.846Z" fill="#000200"/>
<path d="M138.413 359.214C138.028 359.214 137.666 358.961 137.553 358.57C135.834 352.866 129.908 347.116 122.126 343.62C112.332 339.204 101.451 339.158 92.3129 343.482C91.8605 343.689 91.3403 343.505 91.1141 343.045C90.9105 342.585 91.0915 342.056 91.5439 341.826C101.157 337.272 112.558 337.295 122.85 341.941C131.107 345.667 137.395 351.831 139.272 358.041C139.408 358.524 139.159 359.03 138.684 359.191C138.594 359.191 138.503 359.214 138.413 359.214Z" fill="#000200"/>
<path d="M334.281 295.458C320.663 295.458 313.923 274.252 308.878 258.405L308.539 257.347C306.073 249.527 303.947 242.765 301.685 239.752C301.391 239.361 301.459 238.786 301.844 238.464C302.228 238.165 302.794 238.234 303.11 238.625C305.553 241.891 307.747 248.768 310.258 256.749L310.598 257.807C317.203 278.599 324.26 296.953 337.877 293.066C352.445 288.903 355.86 263.833 358.892 241.707L358.959 241.178C359.095 240.35 359.186 239.568 359.299 238.763C360.543 229.632 361.855 220.984 364.072 215.349C370.541 198.881 384.452 186.622 389.519 186.231C390.809 186.139 391.329 186.76 391.555 187.151C392.618 188.968 391.284 192.188 387.483 196.972C385.945 198.904 385.787 201.641 387.076 203.803C388.682 206.494 389.429 209.093 389.293 211.531C389.27 212.037 388.841 212.428 388.343 212.405C387.845 212.382 387.461 211.945 387.483 211.439C387.574 209.369 386.918 207.115 385.516 204.746C383.842 201.94 384.068 198.352 386.058 195.822C390.673 189.98 390.13 188.324 389.972 188.071C389.926 188.048 389.587 187.979 388.841 188.209C383.955 189.773 371.717 200.698 365.7 216.016C363.551 221.467 362.262 230 361.018 238.993C360.905 239.798 360.792 240.58 360.679 241.408L360.611 241.914C357.512 264.592 354.006 290.306 338.307 294.768C336.927 295.274 335.57 295.458 334.281 295.458Z" fill="#000200"/>
<path d="M400.309 208.334C400.06 208.334 399.812 208.219 399.631 208.035C399.359 207.713 399.337 207.253 399.563 206.908C402.164 203.182 407.231 200.79 411.303 198.881C413.927 197.662 416.89 196.259 417.093 195.27C417.116 195.201 417.139 195.04 416.867 194.695C414.741 192.096 402.707 195.937 387.619 204.01C387.189 204.24 386.647 204.079 386.398 203.619C386.172 203.182 386.33 202.63 386.782 202.377C393.093 198.996 414.017 188.347 418.247 193.499C418.948 194.35 418.971 195.132 418.858 195.638C418.451 197.501 415.759 198.766 412.072 200.514C410.285 201.365 408.294 202.285 406.439 203.389C412.275 200.79 420.351 197.984 424.06 200.238C425.01 200.813 426.141 201.986 426.141 204.378C426.141 204.884 425.734 205.298 425.237 205.298C424.739 205.298 424.332 204.884 424.332 204.378C424.332 203.136 423.947 202.285 423.133 201.802C418.948 199.272 405.534 205.574 400.739 208.219C400.603 208.311 400.467 208.334 400.309 208.334Z" fill="#000200"/>
<path d="M405.308 212.497C404.946 212.497 404.607 212.267 404.471 211.899C404.29 211.416 404.539 210.91 405.014 210.726C406.371 210.22 408.023 209.507 409.764 208.771C416.505 205.873 424.151 202.584 426.933 205.275C428.177 206.471 428.268 208.518 427.182 211.531C427.001 212.014 426.503 212.244 426.028 212.083C425.553 211.922 425.327 211.393 425.485 210.91C426.277 208.725 426.345 207.23 425.689 206.586C423.766 204.723 415.759 208.173 410.466 210.45C408.701 211.209 407.027 211.922 405.647 212.451C405.512 212.474 405.399 212.497 405.308 212.497Z" fill="#000200"/>
<path d="M342.99 348.381C317.587 348.381 305.146 330.464 305.01 330.257C304.739 329.843 304.829 329.268 305.237 328.992C305.644 328.716 306.209 328.808 306.481 329.222C306.639 329.452 322.337 351.969 354.616 345.322C388.388 338.376 393.976 288.512 396.961 261.717C397.142 260.107 397.301 258.589 397.482 257.14C397.64 255.714 397.73 254.288 397.821 252.862C397.911 251.482 398.002 250.125 398.138 248.791C398.183 248.147 398.273 247.457 398.386 246.767C399.223 239.982 401.327 228.045 405.942 224.733C409.493 222.18 413.972 220.501 417.93 219.006C422.409 217.327 426.639 215.74 427.046 213.624C427.182 212.865 427.182 212.359 427.001 212.198C425.915 211.209 418.903 213.578 410.013 216.568C409.538 216.729 409.041 216.476 408.882 215.993C408.724 215.51 408.973 215.004 409.448 214.843C422.273 210.542 426.413 209.231 428.2 210.841C429.15 211.692 429.014 213.049 428.833 213.992C428.245 217.12 423.97 218.73 418.564 220.731C414.718 222.18 410.353 223.813 406.982 226.228C404.019 228.344 401.531 235.934 400.173 247.02C400.06 247.687 399.992 248.331 399.947 248.952C399.789 250.286 399.721 251.597 399.631 252.954C399.54 254.403 399.45 255.852 399.269 257.324C399.11 258.773 398.929 260.291 398.748 261.878C395.695 289.133 390.017 339.848 354.978 347.047C350.703 348.013 346.722 348.381 342.99 348.381Z" fill="#000200"/>
<path d="M399.291 246.974C399.178 247.641 399.11 248.285 399.065 248.952C392.075 250.999 384.679 251.528 377.418 250.332C370.903 249.251 364.072 246.33 359.864 241.385C360 240.557 360.09 239.775 360.204 238.97C364.705 245.548 374.183 248.492 382.032 249.044C387.891 249.435 393.727 248.699 399.291 246.974Z" fill="#000200"/>
<path d="M332.63 347.53C332.516 347.53 332.426 347.507 332.313 347.484C331.838 347.3 331.612 346.794 331.77 346.311C338.782 326.853 366.944 319.125 381.783 323.61C382.258 323.748 382.53 324.254 382.394 324.737C382.258 325.22 381.761 325.496 381.286 325.358C367.08 321.08 340.139 328.417 333.467 346.955C333.331 347.3 332.992 347.53 332.63 347.53Z" fill="#000200"/>
<path d="M244.592 83.651C240.475 79.58 231.54 75.647 212.336 80.04C212.041 80.109 211.793 80.316 211.702 80.615C211.589 80.914 211.634 81.236 211.815 81.466L215.661 86.825C215.887 87.147 216.271 87.285 216.633 87.17C224.799 84.686 231.766 84.985 236.268 87.998C239.027 89.838 240.701 92.69 241.108 96.255C242.149 105.271 225.274 107.709 225.116 107.732C224.664 107.801 224.324 108.215 224.347 108.675L225.093 123.947C225.116 124.43 225.523 124.821 225.998 124.821H229.278C229.527 124.821 229.753 124.729 229.934 124.545C230.092 124.361 230.205 124.131 230.183 123.878L229.844 112.953C233.237 112.194 246.582 108.629 248.573 98.279C249.659 92.483 248.256 87.285 244.592 83.651Z" fill="#000200"/>
<path d="M229.911 128.018H225.41C224.98 128.018 224.618 128.317 224.528 128.731L223.261 134.481C223.216 134.734 223.261 134.987 223.397 135.194C223.533 135.401 223.759 135.539 224.008 135.585L229.753 136.482C229.798 136.482 229.844 136.482 229.889 136.482C230.092 136.482 230.319 136.413 230.477 136.252C230.681 136.068 230.794 135.815 230.794 135.562V128.915C230.816 128.432 230.409 128.018 229.911 128.018Z" fill="#000200"/>
</svg>
