<svg width="480" height="460" viewBox="0 0 480 460" fill="none" xmlns="http://www.w3.org/2000/svg">
<rect width="480" height="460" fill="white"/>
<path d="M374.884 344.448L331.567 344.471V366.873L375.563 364.067L374.884 344.448Z" fill="#F674B4"/>
<path d="M256.897 245.088C257.893 241.224 265.651 231.541 262.168 228.344C260.743 227.033 259.34 224.066 260.72 223.514C261.376 223.054 266.76 223.077 267.303 223.307C270.786 219.213 276.916 205.551 278.16 203.573C281.621 198.099 285.602 193.775 291.642 192.165L276.577 102.626L113.644 133.239L148.117 275.057L255.54 251.045C255.699 248.975 256.355 247.204 256.897 245.088Z" fill="#FFCB56"/>
<path d="M259.408 188.922C259.408 209.898 251.355 227.654 222.062 227.654C201.433 227.654 184.716 209.898 184.716 188.922C184.716 167.946 201.433 150.949 222.062 150.949C242.692 150.949 259.408 167.946 259.408 188.922Z" fill="white"/>
<path d="M106.903 114.632C106.903 117.53 105.795 119.968 101.746 119.968C98.8955 119.968 96.5882 117.53 96.5882 114.632C96.5882 111.734 98.8955 109.388 101.746 109.388C104.596 109.388 106.903 111.734 106.903 114.632Z" fill="#7BAEED"/>
<path d="M316.592 90.8731C316.321 90.8731 316.027 90.7351 315.868 90.4821C314.353 88.3201 309.557 82.8001 305.87 83.2601C305.508 83.3061 305.146 83.1221 304.965 82.7771C304.784 82.4551 304.83 82.0411 305.078 81.7651C308.63 77.5331 308.494 68.7931 308.494 68.7241C308.494 68.3331 308.72 67.9651 309.105 67.8501C309.467 67.7121 309.874 67.8501 310.1 68.1491C311.684 70.2881 316.615 75.8771 320.234 76.1761C320.573 76.1991 320.867 76.4291 320.98 76.7281C321.116 77.0501 321.048 77.4181 320.822 77.6711C320.777 77.7171 316.728 82.6161 317.452 89.8611C317.497 90.2751 317.248 90.6661 316.886 90.8041C316.796 90.8501 316.705 90.8731 316.592 90.8731ZM307.454 81.5121C310.666 82.1331 313.787 85.1461 315.619 87.2851C315.8 82.7541 317.542 79.3731 318.628 77.6711C315.393 76.6361 312.068 73.2551 310.213 71.1161C310.032 73.8301 309.421 78.2461 307.454 81.5121Z" fill="#000200"/>
<path d="M189.014 222.801C184.739 226.941 183.472 232.231 183.925 235.773C183.925 235.773 179.016 228.62 172.705 227.033C174.311 224.687 178.541 221.214 177.5 209.829C177.478 209.829 182.477 222.801 189.014 222.801Z" fill="white"/>
<path d="M83.6495 218.017C80.6184 221.122 77.5646 224.204 74.5335 227.309C73.7192 228.137 74.9859 229.425 75.8003 228.597C78.8314 225.492 81.8851 222.41 84.9162 219.305C85.7305 218.477 84.4638 217.189 83.6495 218.017Z" fill="#F674B4"/>
<path d="M106.835 105.041C104.166 102.557 101.497 100.073 98.8502 97.5891C98.0132 96.8071 96.7239 98.0721 97.5834 98.8771C100.253 101.361 102.922 103.845 105.568 106.329C106.428 107.111 107.695 105.823 106.835 105.041Z" fill="#F674B4"/>
<path d="M198.605 231.219L198.899 240.35L206.658 235.796L198.605 231.219Z" fill="#FF3857"/>
<path d="M226.36 220.156C205.278 220.156 188.109 202.377 188.109 180.527C188.109 159.091 205.278 141.634 226.36 141.634C247.442 141.634 264.611 159.068 264.611 180.527C264.611 206.816 251.74 220.156 226.36 220.156ZM226.36 143.451C206.251 143.451 189.896 160.08 189.896 180.527C189.896 201.388 206.251 218.339 226.36 218.339C250.88 218.339 262.824 205.965 262.824 180.527C262.801 160.08 246.447 143.451 226.36 143.451Z" fill="#000200"/>
<path d="M232.581 199.295C232.151 199.295 231.789 198.996 231.699 198.559L224.732 159.781L213.942 168.567C213.557 168.889 212.992 168.82 212.675 168.429C212.358 168.038 212.426 167.463 212.811 167.141L224.777 157.389C225.026 157.182 225.365 157.136 225.659 157.251C225.953 157.366 226.179 157.619 226.224 157.941L233.463 198.214C233.553 198.697 233.237 199.18 232.739 199.272C232.671 199.295 232.626 199.295 232.581 199.295Z" fill="#000200"/>
<path d="M225.32 201.25C224.935 201.25 224.55 200.974 224.46 200.583C224.324 200.1 224.618 199.594 225.093 199.479L239.57 195.592C240.045 195.454 240.543 195.753 240.656 196.236C240.792 196.719 240.498 197.225 240.023 197.34L225.546 201.227C225.478 201.25 225.41 201.25 225.32 201.25Z" fill="#000200"/>
<path d="M308.245 201.618C307.815 201.618 307.431 201.296 307.363 200.859L295.487 129.628C295.397 129.122 295.736 128.662 296.211 128.57C296.686 128.478 297.161 128.823 297.252 129.306L309.127 200.537C309.218 201.043 308.879 201.503 308.404 201.595C308.336 201.618 308.29 201.618 308.245 201.618Z" fill="#000200"/>
<path d="M295.578 119.255L291.597 95.4039C291.551 95.1739 291.416 94.9439 291.235 94.8059C291.031 94.6679 290.805 94.6219 290.556 94.6679L127.646 125.281C127.397 125.327 127.193 125.465 127.058 125.672C126.922 125.879 126.877 126.132 126.944 126.385L143.073 192.74C143.073 192.763 143.095 192.786 143.095 192.809C143.661 192.786 144.226 192.763 144.792 192.74C144.837 192.602 144.837 192.441 144.792 192.303L128.89 126.891L289.991 96.6229L293.813 119.577C293.904 120.06 294.356 120.405 294.854 120.313C295.352 120.221 295.668 119.761 295.578 119.255Z" fill="#000200"/>
<path d="M162.639 270.411C162.232 270.411 161.87 270.135 161.779 269.721L146.828 208.219C146.714 207.736 147.009 207.23 147.484 207.115C147.959 207 148.456 207.299 148.569 207.782L163.318 268.41L256.694 245.893C257.169 245.755 257.666 246.077 257.779 246.56C257.893 247.043 257.598 247.549 257.123 247.664L162.888 270.388C162.775 270.411 162.707 270.411 162.639 270.411Z" fill="#000200"/>
<path d="M262.53 233.772C262.326 233.542 262.032 233.427 261.715 233.496L172.818 250.01L158.273 195.753C158.138 195.27 157.663 194.994 157.165 195.109C156.69 195.247 156.396 195.753 156.532 196.236L171.28 251.298C171.393 251.689 171.755 251.965 172.14 251.965C172.185 251.965 172.253 251.965 172.298 251.942L261.557 235.359C261.896 234.83 262.236 234.324 262.53 233.772Z" fill="#000200"/>
<path d="M154.089 184.437C153.704 184.437 153.342 184.161 153.229 183.77L140.878 137.701C140.811 137.448 140.856 137.195 140.992 136.965C141.127 136.758 141.353 136.597 141.602 136.551L280.332 111.987C280.829 111.895 281.282 112.217 281.372 112.723L282.119 116.909C282.209 117.392 281.893 117.875 281.395 117.967C280.92 118.059 280.445 117.737 280.354 117.231L279.766 113.942L142.869 138.184L154.948 183.287C155.084 183.77 154.79 184.276 154.315 184.414C154.247 184.437 154.157 184.437 154.089 184.437Z" fill="#000200"/>
<path d="M296.279 201.595C295.849 201.595 295.487 201.296 295.397 200.859L281.757 125.097C281.666 124.614 281.983 124.131 282.481 124.039C282.956 123.97 283.431 124.269 283.521 124.775L297.161 200.537C297.252 201.02 296.935 201.503 296.437 201.595C296.369 201.572 296.324 201.595 296.279 201.595Z" fill="#000200"/>
<path d="M141.738 138.368C141.534 138.368 141.353 138.299 141.173 138.161L127.238 126.891C126.854 126.569 126.786 125.994 127.103 125.603C127.419 125.212 127.962 125.143 128.37 125.465L142.304 136.735C142.688 137.057 142.756 137.632 142.439 138.023C142.258 138.253 142.009 138.368 141.738 138.368Z" fill="#000200"/>
<path d="M280.468 113.781C280.309 113.781 280.151 113.735 280.015 113.643C279.585 113.39 279.45 112.815 279.721 112.401L289.991 95.0819C290.24 94.6449 290.782 94.5069 291.212 94.7599C291.642 95.0129 291.778 95.5879 291.506 96.0019L281.237 113.321C281.056 113.643 280.762 113.781 280.468 113.781Z" fill="#000200"/>
<path d="M162.277 268.893C162.119 268.893 161.961 268.847 161.825 268.755C161.395 268.502 161.259 267.95 161.508 267.513L171.416 250.585C171.665 250.148 172.208 250.01 172.637 250.263C173.067 250.516 173.203 251.068 172.954 251.505L163.046 268.433C162.888 268.732 162.571 268.893 162.277 268.893Z" fill="#000200"/>
<path d="M204.215 150.834C204.011 150.834 203.785 150.765 203.627 150.604L181.844 130.916C181.482 130.571 181.436 129.996 181.776 129.628C182.115 129.26 182.658 129.214 183.042 129.559L204.826 149.247C205.188 149.592 205.233 150.167 204.893 150.535C204.712 150.742 204.464 150.834 204.215 150.834Z" fill="#000200"/>
<path d="M195.619 159.85C195.438 159.85 195.257 159.781 195.076 159.666L161.734 134.55C161.327 134.251 161.259 133.676 161.553 133.285C161.847 132.894 162.413 132.802 162.797 133.101L196.14 158.217C196.547 158.516 196.615 159.091 196.32 159.482C196.162 159.712 195.891 159.85 195.619 159.85Z" fill="#000200"/>
<path d="M235.272 144.532C235.182 144.532 235.114 144.509 235.024 144.486C234.549 144.348 234.277 143.842 234.413 143.359L241.403 119.37C241.538 118.887 242.036 118.611 242.511 118.749C242.986 118.887 243.257 119.393 243.122 119.876L236.132 143.865C235.996 144.279 235.657 144.532 235.272 144.532Z" fill="#000200"/>
<path d="M248.505 150.834C248.415 150.834 248.302 150.811 248.211 150.788C247.736 150.627 247.51 150.098 247.668 149.638L259.182 116.219C259.34 115.736 259.861 115.483 260.313 115.667C260.788 115.828 261.014 116.357 260.856 116.817L249.342 150.236C249.206 150.604 248.867 150.834 248.505 150.834Z" fill="#000200"/>
<path d="M188.992 115.575C188.788 115.575 188.562 115.506 188.403 115.345C188.042 115 188.019 114.425 188.336 114.057L207.812 92.092C208.06 91.816 208.468 91.724 208.807 91.862L239.095 104.466C239.548 104.65 239.774 105.179 239.593 105.662C239.412 106.122 238.869 106.352 238.417 106.168L208.716 93.794L189.67 115.276C189.489 115.483 189.24 115.575 188.992 115.575Z" fill="#000200"/>
<path d="M272.324 240.12C271.171 240.994 269.406 241.868 268.139 240.741C267.235 239.936 265.9 241.293 266.805 242.098C268.75 243.823 271.351 243.202 273.274 241.776C274.247 241.063 273.297 239.407 272.324 240.12Z" fill="#000200"/>
<path d="M277.911 219.282L277.029 220.984C275.898 223.169 272.55 221.375 273.681 219.19L274.564 217.488C275.695 215.303 279.042 217.097 277.911 219.282Z" fill="#000200"/>
<path d="M279.902 207.598C280.739 208.403 281.44 209.392 282.322 210.128C283.25 210.91 282.232 212.52 281.304 211.738C280.286 210.887 279.472 209.829 278.499 208.886C277.64 208.035 279.02 206.747 279.902 207.598Z" fill="#000200"/>
<path d="M371.717 267.973C366.266 257.853 354.548 253.161 343.691 255.461C341.972 251.39 338.488 248.814 334.484 247.687C339.913 237.751 343.08 224.457 328.422 208.564C325.233 204.171 320.121 200.123 313.086 196.351C296.415 187.404 284.788 189.589 277.549 203.044C275.83 206.218 274.315 209.024 272.89 211.623C270.763 215.51 268.909 218.914 266.986 222.571C265.312 222.019 261.534 221.076 259.883 223.261C259.204 224.158 258.978 225.216 259.204 226.297C259.544 227.838 260.81 229.379 262.665 230.552C255.472 244.812 252.532 254.081 257.282 261.74C260.041 266.179 265.335 269.353 269.791 271.377L273.184 281.336C273.319 281.704 273.659 281.934 274.021 281.934C274.111 281.934 274.224 281.911 274.315 281.888C274.79 281.727 275.016 281.198 274.858 280.715L274.45 279.542C278.296 277.794 278.341 273.424 278.341 273.217C278.341 272.803 278.07 272.435 277.685 272.343C277.549 272.297 263.593 268.502 258.797 260.751C254.907 254.472 256.377 246.859 264.656 230.598C264.656 230.575 264.679 230.552 264.679 230.529C264.701 230.483 264.701 230.46 264.724 230.414C264.724 230.391 264.724 230.368 264.724 230.345C264.724 230.299 264.746 230.276 264.746 230.23C264.746 230.207 264.746 230.184 264.746 230.161C264.746 230.115 264.746 230.092 264.746 230.046C264.746 230.023 264.746 230 264.724 229.977C264.724 229.931 264.701 229.908 264.701 229.862C264.701 229.839 264.679 229.816 264.679 229.793C264.656 229.77 264.656 229.724 264.633 229.701C264.611 229.678 264.611 229.655 264.588 229.632C264.565 229.609 264.543 229.586 264.543 229.54C264.52 229.517 264.498 229.494 264.498 229.494C264.475 229.471 264.452 229.448 264.43 229.425C264.407 229.402 264.384 229.402 264.362 229.379C264.339 229.356 264.317 229.333 264.271 229.333C262.507 228.39 261.218 227.01 260.946 225.837C260.833 225.285 260.946 224.779 261.286 224.296C262.213 223.054 265.583 223.882 267.054 224.48C267.054 224.48 267.076 224.48 267.099 224.48C267.144 224.503 267.167 224.503 267.212 224.503C267.235 224.503 267.257 224.503 267.28 224.503C267.325 224.503 267.37 224.503 267.393 224.503C267.416 224.503 267.438 224.503 267.438 224.503C267.483 224.503 267.529 224.503 267.551 224.48C267.574 224.48 267.597 224.48 267.597 224.48C267.642 224.48 267.664 224.457 267.71 224.434C267.732 224.434 267.755 224.411 267.755 224.411C267.777 224.388 267.823 224.388 267.845 224.365C267.868 224.342 267.891 224.342 267.891 224.319C267.913 224.296 267.936 224.273 267.981 224.25C268.004 224.227 268.026 224.227 268.026 224.204C268.049 224.181 268.072 224.158 268.094 224.135C268.117 224.112 268.117 224.089 268.139 224.066C268.139 224.043 268.162 224.043 268.162 224.02C270.198 220.11 272.166 216.545 274.405 212.405C275.83 209.783 277.368 207 279.065 203.826C281.915 198.559 285.512 195.178 289.9 193.66C284.969 211.071 297.5 230.184 297.953 230.391C303.042 232.783 306.187 235.451 307.069 238.119C307.499 239.407 307.408 240.672 306.775 241.891C306.39 242.627 305.463 243.961 303.563 244.513C301.459 245.134 298.858 244.559 296.007 242.903C295.713 242.719 294.944 242.305 294.243 243.294C287.57 252.701 294.469 263.672 304.015 266.869C299.084 270.802 295.148 276.115 295.08 282.647C295.012 289.478 299.242 295.964 305.893 297.298C304.264 309.81 318.922 313.145 328.445 312.708C341.768 312.087 356.335 309.902 366.379 300.127C375.042 291.847 377.553 278.783 371.717 267.973Z" fill="#000200"/>
<path d="M238.756 373.244C238.371 373.244 238.032 372.991 237.896 372.6L229.844 346.932C229.685 346.449 229.957 345.943 230.432 345.782C230.907 345.644 231.404 345.897 231.563 346.38L239.616 372.048C239.774 372.531 239.502 373.037 239.027 373.198C238.937 373.221 238.846 373.244 238.756 373.244Z" fill="#000200"/>
<path d="M257.078 373.244C256.694 373.244 256.355 372.991 256.219 372.6L247.623 344.701C247.465 344.218 247.736 343.712 248.211 343.551C248.686 343.39 249.184 343.666 249.342 344.149L257.938 372.048C258.096 372.531 257.825 373.037 257.35 373.198C257.259 373.244 257.169 373.244 257.078 373.244Z" fill="#000200"/>
<path d="M361.719 359.306C361.335 359.306 360.973 359.03 360.86 358.639L347.197 307.878C347.061 307.395 347.355 306.889 347.83 306.751C348.306 306.636 348.803 306.912 348.939 307.395L362.602 358.156C362.737 358.639 362.443 359.145 361.968 359.283C361.878 359.283 361.81 359.306 361.719 359.306Z" fill="#000200"/>
<path d="M181.436 297.85C171.959 297.85 162.752 296.493 155.717 292.905C149.542 289.754 145.425 285.154 143.502 279.22C135.427 254.426 139.815 215.441 145.561 209.024C146.353 208.127 147.167 207.253 147.981 206.402C152.437 201.618 156.645 197.11 159.517 188.025C160.988 183.356 160.4 180.78 159.223 180.343C158.206 179.975 156.509 181.079 155.627 183.333C155.288 184.207 154.993 184.989 154.722 185.725C153.003 190.302 152.211 192.395 147.823 192.878C147.257 192.947 143.005 193.798 141.738 192.694C140.042 191.199 139.499 187.312 139.883 179.331C139.906 178.825 140.336 178.434 140.811 178.457C141.308 178.48 141.693 178.917 141.67 179.4C141.331 186.369 141.738 190.279 142.914 191.291C143.48 191.797 147.009 191.13 147.642 191.061C150.944 190.693 151.397 189.497 153.071 185.081C153.342 184.345 153.636 183.563 153.998 182.666C155.22 179.584 157.731 177.859 159.857 178.641C160.807 178.986 163.725 180.734 161.259 188.6C158.251 198.076 153.704 202.952 149.316 207.69C148.524 208.541 147.71 209.392 146.918 210.289C142.145 215.625 137.078 253.621 145.244 278.668C147.031 284.119 150.831 288.374 156.577 291.295C173.632 299.989 203.898 295.136 218.941 290.03C228.667 286.741 243.484 284.786 259.159 282.739C275.717 280.554 292.863 278.323 303.947 274.321C304.422 274.16 304.92 274.413 305.078 274.873C305.237 275.356 305.01 275.862 304.535 276.046C293.271 280.094 276.034 282.348 259.386 284.556C243.8 286.603 229.075 288.535 219.506 291.778C210.277 294.837 195.551 297.85 181.436 297.85Z" fill="#000200"/>
<path d="M248.008 285.039C247.284 285.131 246.56 285.177 245.836 285.177C245.859 285.2 245.859 285.223 245.881 285.246C256.241 298.011 261.105 311.673 259.544 323.702C258.481 331.867 254.454 338.928 248.166 343.551C165.24 355.074 137.779 344.103 113.599 318.32C89.3497 292.491 95.2762 234.439 113.169 192.924C115.476 187.565 120.113 184.966 120.158 184.943C120.588 184.713 121.697 183.31 121.47 182.873C121.244 182.436 119.751 183.103 119.321 183.333C119.118 183.448 114.096 186.231 111.54 192.188C93.4213 234.232 87.5401 293.181 112.309 319.562C130.36 338.767 150.107 349.922 192.339 349.922C207.766 349.922 226.202 348.427 248.641 345.299C248.777 345.276 248.912 345.23 249.048 345.138C255.857 340.216 260.222 332.672 261.353 323.909C262.892 311.719 258.164 297.942 248.008 285.039Z" fill="#000200"/>
<path d="M218.036 348.818C217.945 348.818 217.855 348.795 217.764 348.772C217.289 348.611 217.041 348.105 217.176 347.622C222.469 330.832 218.692 306.866 208.739 294.147C208.422 293.756 208.49 293.181 208.875 292.859C209.259 292.537 209.825 292.606 210.141 292.997C220.592 306.36 224.437 330.579 218.895 348.151C218.76 348.565 218.398 348.818 218.036 348.818Z" fill="#000200"/>
<path d="M209.44 349.439C209.372 349.439 209.282 349.439 209.214 349.416C208.739 349.278 208.445 348.795 208.581 348.312C212.313 334.006 211.838 311.374 201.885 295.481C201.614 295.067 201.749 294.492 202.156 294.216C202.586 293.94 203.129 294.078 203.401 294.492C213.625 310.822 214.145 334.075 210.3 348.749C210.187 349.186 209.825 349.439 209.44 349.439Z" fill="#000200"/>
<path d="M132.396 197.363C131.943 197.363 131.536 196.995 131.514 196.512C131.468 195.799 130.27 179.055 136.106 168.153C136.332 167.716 137.35 165.876 137.779 166.106C138.209 166.359 137.915 168.567 137.666 169.027C132.079 179.446 133.278 196.19 133.278 196.374C133.323 196.88 132.939 197.317 132.464 197.34C132.441 197.363 132.418 197.363 132.396 197.363Z" fill="#000200"/>
<path d="M123.031 199.295C123.009 199.295 123.008 199.295 122.986 199.295C122.488 199.272 122.104 198.835 122.126 198.352C123.031 179.239 127.306 175.053 134.228 169.855C134.613 169.556 136.535 168.59 136.829 168.981C137.123 169.395 135.698 171.005 135.291 171.304C128.596 176.341 124.773 180.09 123.913 198.444C123.891 198.927 123.506 199.295 123.031 199.295Z" fill="#000200"/>
<path d="M115.906 201.25C115.883 201.25 115.883 201.25 115.861 201.25C115.363 201.227 114.978 200.79 115.024 200.284C115.657 188.393 118.801 182.206 126.605 177.468C127.035 177.215 127.578 177.353 127.827 177.79C128.076 178.227 127.94 178.779 127.51 179.032C120.204 183.448 117.399 189.06 116.811 200.399C116.765 200.882 116.381 201.25 115.906 201.25Z" fill="#000200"/>
<path d="M312.52 140.99C305.689 140.99 302.929 137.655 300.237 134.412C298.699 132.549 297.093 130.64 294.673 129.237C292.004 127.719 288.136 126.937 284.381 126.178C278.432 124.982 272.822 123.855 272.573 119.692C272.482 118.312 272.528 116.932 273.455 116.104C274.812 114.885 277.165 115.345 282.91 116.449C286.145 117.07 290.601 117.921 296.415 118.749C296.912 118.818 297.252 119.278 297.184 119.784C297.116 120.29 296.663 120.612 296.166 120.566C290.307 119.738 285.851 118.887 282.594 118.266C278.228 117.438 275.355 116.886 274.654 117.507C274.383 117.76 274.292 118.45 274.36 119.623C274.541 122.406 279.495 123.395 284.743 124.453C288.633 125.235 292.66 126.04 295.578 127.719C298.292 129.26 299.989 131.307 301.64 133.308C304.309 136.528 306.639 139.311 312.814 139.219C312.814 139.219 312.814 139.219 312.837 139.219C313.334 139.219 313.719 139.61 313.742 140.116C313.742 140.622 313.357 141.036 312.859 141.036C312.724 140.99 312.611 140.99 312.52 140.99Z" fill="#000200"/>
<path d="M367.532 277.127C367.329 277.127 367.103 277.058 366.944 276.897C366.582 276.552 366.537 276 366.876 275.609C392.867 245.824 394.405 190.9 386.579 170.913C371.943 133.515 331.001 117.76 292.886 107.295C292.411 107.157 292.117 106.674 292.253 106.168C292.388 105.685 292.886 105.386 293.338 105.524C331.883 116.127 373.301 132.112 388.23 170.246C396.192 190.601 394.631 246.514 368.211 276.828C368.03 277.012 367.781 277.127 367.532 277.127Z" fill="#000200"/>
<path d="M335.005 244.076C334.801 244.076 334.575 244.007 334.417 243.846C334.055 243.524 334.009 242.949 334.326 242.558C344.844 230.391 350.499 205.804 347.174 186.576C344.007 168.268 327.336 154.652 298.971 147.223C298.496 147.108 298.202 146.602 298.337 146.119C298.473 145.636 298.948 145.337 299.423 145.475C328.535 153.088 345.659 167.187 348.939 186.277C352.332 205.988 346.518 231.242 335.661 243.754C335.502 243.984 335.253 244.076 335.005 244.076Z" fill="#000200"/>
<path d="M379.725 258.106C379.702 258.106 379.679 258.106 379.657 258.106C379.159 258.06 378.797 257.623 378.842 257.117C379.498 249.251 366.967 235.52 342.605 231.311C342.107 231.219 341.791 230.759 341.881 230.253C341.972 229.747 342.424 229.425 342.922 229.517C368.641 233.979 381.353 248.492 380.629 257.278C380.584 257.738 380.2 258.106 379.725 258.106Z" fill="#000200"/>
<path d="M375.766 264.615C375.336 264.615 374.975 264.316 374.884 263.879C372.894 253.322 360.973 244.72 339.461 238.326C338.986 238.188 338.714 237.682 338.85 237.199C338.986 236.716 339.483 236.44 339.959 236.578C362.172 243.179 374.5 252.241 376.648 263.534C376.739 264.017 376.422 264.5 375.947 264.592C375.879 264.615 375.811 264.615 375.766 264.615Z" fill="#000200"/>
</svg>
