<svg width="480" height="460" viewBox="0 0 480 460" fill="none" xmlns="http://www.w3.org/2000/svg">
<g clip-path="url(#clip0_92_470)">
<rect width="480" height="460" fill="white"/>
<path d="M192.452 117.668C188.788 113.965 185.123 110.262 181.482 106.536C180.667 105.708 179.401 106.996 180.215 107.824C183.879 111.527 187.544 115.23 191.186 118.956C192 119.784 193.267 118.496 192.452 117.668Z" fill="#F674B4"/>
<path d="M265.335 97.244C263.186 99.774 261.037 102.281 258.888 104.811C258.119 105.708 259.431 106.996 260.177 106.099C262.326 103.569 264.475 101.062 266.624 98.532C267.393 97.658 266.081 96.347 265.335 97.244Z" fill="#7BAEED"/>
<path d="M284.879 110.745C279.54 113.206 274.224 115.69 268.886 118.151C267.823 118.657 268.75 120.221 269.813 119.738C275.152 117.277 280.468 114.793 285.806 112.332C286.892 111.826 285.964 110.262 284.879 110.745Z" fill="#F674B4"/>
<path d="M272.347 250.217C257.304 252.356 258.503 275.195 275.129 275.08C293.994 274.942 290.941 247.549 272.347 250.217Z" fill="#FFCB56"/>
<path d="M183.336 263.856L185.983 271.883L193.561 265.742L183.336 263.856Z" fill="#F674B4"/>
<path d="M64.2639 178.227L72.0679 197.984L84.803 181.792L64.2639 178.227Z" fill="#7BAEED"/>
<path d="M377.372 138.253L359.842 160.678L381.534 180.389L403.024 160.678L377.372 138.253Z" fill="#F674B4"/>
<path d="M366.899 155.066H355.702L353.915 168.452L364.434 171.994L366.899 155.066Z" fill="#FFCB56"/>
<path d="M87.2007 146.671C86.7031 150.213 86.2054 153.732 85.7078 157.274C85.5495 158.424 87.2686 158.93 87.4496 157.757C87.9472 154.215 88.4448 150.696 88.9425 147.154C89.1008 146.004 87.3591 145.498 87.2007 146.671Z" fill="#FFCB56"/>
<path d="M371.061 128.294C370.88 127.144 369.139 127.627 369.32 128.777C369.568 130.295 369.817 131.813 370.066 133.331C370.247 134.481 371.989 133.998 371.808 132.848C371.559 131.33 371.31 129.812 371.061 128.294Z" fill="#7BAEED"/>
<path d="M408.204 173.075C405.467 173.328 402.73 173.581 400.015 173.834C398.861 173.949 398.861 175.766 400.015 175.651C402.752 175.398 405.489 175.145 408.204 174.892C409.335 174.8 409.357 172.983 408.204 173.075Z" fill="#7BAEED"/>
<path d="M75.2573 162.541C73.7644 161.529 72.2714 160.517 70.7785 159.528C69.8058 158.884 68.901 160.448 69.8737 161.115C71.3666 162.127 72.8596 163.139 74.3525 164.128C75.3252 164.772 76.23 163.185 75.2573 162.541Z" fill="#FFCB56"/>
<path d="M165.15 121.532C140.268 128.386 117.534 141.519 98.9859 159.735C98.1489 160.563 99.4157 161.851 100.253 161.023C118.598 143.037 141.037 130.088 165.625 123.303C166.733 122.981 166.258 121.233 165.15 121.532Z" fill="#7BAEED"/>
<path d="M343.352 129.95C333.761 121.693 322.632 115.92 310.394 112.93C309.263 112.654 308.788 114.425 309.919 114.701C321.84 117.622 332.72 123.188 342.062 131.238C342.945 131.997 344.234 130.709 343.352 129.95Z" fill="#7BAEED"/>
<path d="M305.757 356.799C305.282 356.799 304.875 356.408 304.852 355.902L301.572 238.924C301.549 238.418 301.957 238.004 302.454 237.981C302.929 237.981 303.359 238.372 303.382 238.878L306.662 355.856C306.684 356.362 306.277 356.776 305.779 356.799C305.757 356.799 305.757 356.799 305.757 356.799Z" fill="#000200"/>
<path d="M160.943 361.192C160.445 361.192 160.038 360.778 160.038 360.272V342.631C160.038 342.125 160.445 341.711 160.943 341.711C161.44 341.711 161.847 342.125 161.847 342.631V360.272C161.847 360.801 161.44 361.192 160.943 361.192Z" fill="#000200"/>
<path d="M215.819 293.319C215.796 293.319 215.774 293.319 215.751 293.319L190.213 291.157C189.964 291.134 189.738 291.019 189.602 290.835C189.444 290.651 189.376 290.398 189.399 290.145L191.005 275.356C191.05 274.896 191.435 274.551 191.887 274.551H215.819C216.317 274.551 216.724 274.965 216.724 275.471V292.422C216.724 292.675 216.611 292.928 216.43 293.089C216.249 293.227 216.023 293.319 215.819 293.319ZM191.254 289.409L214.914 291.41V276.368H192.679L191.254 289.409Z" fill="#000200"/>
<path d="M280.128 268.778C271.103 268.778 266.511 262.269 266.081 256.197C265.651 250.24 268.999 243.294 277.346 242.098C283.182 241.247 288.272 243.271 291.303 247.595C294.243 251.781 294.718 257.531 292.501 261.947C290.307 266.317 285.942 268.755 280.241 268.801C280.219 268.778 280.174 268.778 280.128 268.778ZM277.595 243.915C270.379 244.95 267.506 250.93 267.868 256.082C268.253 261.51 272.211 266.961 280.128 266.961C280.174 266.961 280.219 266.961 280.264 266.961C285.263 266.915 289.063 264.845 290.941 261.119C292.863 257.324 292.434 252.31 289.878 248.676C288.317 246.445 284.652 242.903 277.595 243.915Z" fill="#000200"/>
<path d="M157.188 266.294C156.554 261.694 154.451 255.139 157.007 249.987C160.648 242.673 166.846 234.6 169.176 237.406C172.999 241.983 183.54 308.568 181.595 327.451C179.649 346.334 161.621 355.902 161.621 355.902L160.965 342.654C160.965 342.654 169.719 334.328 170.194 318.113C170.669 301.898 160.875 256.266 160.875 256.266L157.188 266.294Z" fill="#000200"/>
<path d="M312.701 326.002C311.367 332.488 308.539 337.778 305.327 341.987C305.214 340.17 305.101 338.33 304.988 336.513C304.377 327.106 301.64 242.811 302.771 240.005C301.075 231.196 306.888 241.569 309.829 248.262C312.317 253.92 315.303 261.28 314.873 268.525C315.348 290.858 314.873 315.468 312.701 326.002Z" fill="#000200"/>
<path d="M145.357 297.275C144.86 297.275 144.452 296.861 144.452 296.355L144.407 226.826C144.407 221.559 148.456 217.327 153.614 217.189C175.759 216.614 175.849 216.729 176.234 217.212C176.415 217.442 176.483 217.741 176.415 218.017C176.302 218.5 175.804 218.822 175.329 218.684C175.306 218.684 175.284 218.661 175.261 218.661C174.65 218.615 171.212 218.546 153.659 219.029C149.474 219.144 146.194 222.571 146.194 226.826L146.239 296.355C146.262 296.861 145.855 297.275 145.357 297.275Z" fill="#000200"/>
<path d="M308.765 259.072C308.268 259.072 307.861 258.658 307.861 258.152V225.124C307.861 220.823 304.422 217.327 300.192 217.327C299.695 217.327 299.288 216.913 299.288 216.407C299.288 215.901 299.695 215.487 300.192 215.487C305.418 215.487 309.648 219.811 309.648 225.101V258.129C309.648 258.658 309.263 259.072 308.765 259.072Z" fill="#000200"/>
<path d="M149.293 361.192C148.796 361.192 148.388 360.778 148.388 360.272V353.073C148.388 352.567 148.796 352.153 149.293 352.153C149.791 352.153 150.198 352.567 150.198 353.073V360.272C150.198 360.801 149.791 361.192 149.293 361.192Z" fill="#000200"/>
<path d="M286.032 216.43C285.172 202.607 274.36 204.332 274.36 204.332C271.352 196.075 263.57 195.04 263.57 195.04C262.914 184.943 257.96 174.501 236.426 175.628C214.892 176.755 205.549 186.116 206.296 200.721C197.316 200.836 194.104 206.356 194.149 209.99C192.407 205.942 191.932 201.112 191.887 195.546C191.615 170.867 203.333 162.771 247.827 162.334C284.924 161.966 288.566 170.062 289.629 188.6C290.33 201.296 290.42 210.381 286.032 216.43Z" fill="#000200"/>
<path d="M249.93 227.079C199.465 227.079 191.208 217.787 190.982 195.569C190.869 184.897 192.973 177.882 197.836 172.845C205.391 165.002 219.868 161.69 247.804 161.437V162.357V161.437C285.037 161.092 289.402 169.418 290.511 188.554C291.28 202.124 291.37 212.221 285.489 218.569C279.947 224.526 269.316 227.079 249.93 227.079ZM247.827 163.254C220.411 163.507 206.319 166.658 199.125 174.11C194.624 178.779 192.656 185.38 192.769 195.546C192.995 215.74 198.696 225.239 249.93 225.239C268.773 225.239 279.02 222.87 284.177 217.304C289.583 211.485 289.47 201.756 288.724 188.646C287.751 171.718 285.467 162.909 247.827 163.254Z" fill="#000200"/>
<path d="M215.796 213.026C215.683 213.026 215.548 213.003 215.434 212.957C214.982 212.75 214.779 212.221 214.982 211.761C218.172 204.332 226.156 186.093 226.156 186.093C226.36 185.633 226.88 185.426 227.31 185.61C227.559 185.702 251.83 195.73 263.412 193.913C263.909 193.844 264.362 194.189 264.43 194.672C264.498 195.178 264.181 195.638 263.683 195.707C252.712 197.432 231.879 189.405 227.446 187.634C225.862 191.245 219.416 205.988 216.611 212.497C216.475 212.819 216.158 213.026 215.796 213.026Z" fill="#000200"/>
<path d="M205.527 220.133C205.097 220.133 204.713 219.811 204.645 219.374C204.351 217.465 204.78 215.74 205.889 214.383C207.653 212.267 211.001 211.209 215.796 211.209C216.294 211.209 216.701 211.623 216.701 212.129C216.701 212.635 216.294 213.049 215.796 213.049C211.589 213.049 208.648 213.923 207.246 215.579C206.454 216.522 206.183 217.695 206.409 219.098C206.477 219.604 206.16 220.064 205.663 220.156C205.617 220.133 205.572 220.133 205.527 220.133Z" fill="#000200"/>
<path d="M244.207 222.893C243.71 222.893 243.303 222.479 243.303 221.973C243.303 221.467 243.71 221.053 244.207 221.053C245.881 221.053 247.261 220.593 247.917 219.834C248.279 219.397 248.392 218.868 248.302 218.224C248.053 216.775 244.909 215.97 243.416 215.809C242.963 215.763 242.624 215.372 242.624 214.912V206.54C242.624 206.034 243.031 205.62 243.529 205.62C244.026 205.62 244.434 206.034 244.434 206.54V214.107C246.107 214.406 249.681 215.349 250.089 217.925C250.292 219.098 250.021 220.179 249.319 221.007C248.279 222.226 246.469 222.893 244.207 222.893Z" fill="#000200"/>
<path d="M231.631 201.917C230.16 202.078 228.735 202.331 227.31 202.768C226.202 203.113 226.948 204.769 228.057 204.424C229.301 204.033 230.613 203.849 231.925 203.711C233.078 203.573 232.784 201.779 231.631 201.917Z" fill="#000200"/>
<path d="M257.598 202.607C256.671 201.986 255.653 201.549 254.771 200.859C253.866 200.146 252.599 201.457 253.527 202.17C254.522 202.952 255.676 203.481 256.716 204.194C257.689 204.838 258.549 203.228 257.598 202.607Z" fill="#000200"/>
<path d="M264.792 225.929C264.294 225.929 263.887 225.515 263.887 225.032C263.819 216.43 263.593 209.116 262.665 195.109C261.783 181.746 253.21 175.674 236.471 176.548C224.89 177.146 216.611 180.159 211.86 185.518C208.445 189.382 206.861 194.465 207.178 200.675C207.201 201.181 206.816 201.618 206.319 201.641C205.776 201.641 205.391 201.273 205.368 200.767C205.029 194.074 206.748 188.531 210.503 184.299C215.593 178.572 224.279 175.352 236.358 174.731C254.047 173.811 263.502 180.619 264.43 194.994C265.357 209.001 265.583 216.614 265.651 225.032C265.697 225.515 265.312 225.929 264.792 225.929C264.792 225.929 264.814 225.929 264.792 225.929Z" fill="#000200"/>
<path d="M163.793 250.263C163.657 250.263 163.521 250.24 163.408 250.171C162.956 249.964 162.775 249.412 162.978 248.952L163.544 247.756C167.005 240.488 177.523 218.408 176.867 198.122C176.234 178.986 176.415 165.83 184.038 157.688C192.226 148.948 208.196 145.797 247.352 145.176C279.902 144.555 298.405 146.901 300.622 202.584C300.758 206.149 300.871 209.461 300.961 212.543C301.323 224.342 301.572 232.875 303.63 239.729C303.766 240.212 303.517 240.718 303.042 240.879C302.567 241.017 302.07 240.764 301.911 240.281C299.785 233.197 299.536 224.572 299.174 212.612C299.084 209.53 298.971 206.218 298.835 202.653C296.573 146.027 277.007 146.418 247.397 146.993C208.807 147.591 193.154 150.604 185.35 158.93C178.202 166.543 178.066 179.377 178.677 198.053C179.355 218.776 168.679 241.178 165.172 248.538L164.607 249.734C164.449 250.079 164.132 250.263 163.793 250.263Z" fill="#000200"/>
<path d="M194.149 210.013L193.244 209.99C193.221 207.782 194.171 205.482 195.913 203.665C197.565 201.94 200.709 199.87 206.296 199.801C206.748 199.801 207.201 200.192 207.201 200.698C207.201 201.204 206.816 201.618 206.319 201.618C201.342 201.687 198.628 203.458 197.203 204.93C195.823 206.356 195.031 208.242 195.054 209.967L194.149 210.013Z" fill="#000200"/>
<path d="M285.195 217.833C285.195 217.902 285.195 217.948 285.218 218.017C285.761 217.488 286.349 216.982 286.959 216.522C286.959 216.476 286.959 216.43 286.959 216.384C286.665 211.508 285.127 207.92 282.413 205.712C279.631 203.435 276.418 203.297 274.993 203.366C271.668 195.293 264.045 194.166 263.729 194.12C263.231 194.051 262.779 194.396 262.711 194.902C262.643 195.408 262.982 195.868 263.48 195.937C263.774 195.983 270.763 197.041 273.568 204.654C273.727 205.068 274.111 205.298 274.541 205.229C274.586 205.229 278.319 204.677 281.304 207.138C283.589 209.024 284.901 212.152 285.172 216.499C285.172 216.936 285.195 217.373 285.195 217.833Z" fill="#000200"/>
<path d="M230.024 220.317C228.78 220.317 227.491 220.018 226.315 219.42C223.193 217.833 221.384 214.613 221.384 210.565C221.384 210.059 221.791 209.645 222.288 209.645C222.786 209.645 223.193 210.059 223.193 210.565C223.216 213.9 224.641 216.522 227.129 217.787C229.255 218.868 231.744 218.684 233.485 217.373C235.476 215.855 236.222 213.095 235.612 209.599C235.521 209.093 235.86 208.633 236.335 208.541C236.833 208.449 237.286 208.794 237.376 209.277C238.371 214.958 236.041 217.695 234.548 218.822C233.259 219.811 231.653 220.317 230.024 220.317Z" fill="#000200"/>
<path d="M255.495 219.282C254.386 219.282 253.278 219.029 252.26 218.477C249.342 216.982 247.691 213.67 247.691 209.438C247.691 208.932 248.098 208.518 248.596 208.518C249.093 208.518 249.5 208.932 249.5 209.438C249.5 212.957 250.812 215.671 253.097 216.844C254.884 217.764 256.988 217.603 258.594 216.43C260.562 214.981 261.399 212.244 260.878 208.932C260.81 208.426 261.127 207.966 261.625 207.874C262.122 207.805 262.575 208.127 262.665 208.633C263.299 212.635 262.213 216.016 259.657 217.902C258.39 218.822 256.965 219.282 255.495 219.282Z" fill="#000200"/>
<path d="M236.697 213.946C236.381 213.946 236.064 213.785 235.906 213.463C235.657 213.026 235.838 212.474 236.268 212.221C236.539 212.06 243.054 208.518 248.958 211.37C249.41 211.577 249.591 212.129 249.387 212.589C249.184 213.049 248.641 213.233 248.188 213.026C243.099 210.565 237.195 213.785 237.127 213.831C236.992 213.9 236.833 213.946 236.697 213.946Z" fill="#000200"/>
<path d="M251.921 209.783L251.74 211.6C251.491 213.946 255.065 214.314 255.314 211.991L255.495 210.174C255.721 207.828 252.147 207.437 251.921 209.783Z" fill="#000200"/>
<path d="M227.695 210.358L227.514 212.175C227.265 214.521 230.839 214.889 231.088 212.566L231.269 210.749C231.517 208.403 227.943 208.012 227.695 210.358Z" fill="#000200"/>
<path d="M131.288 306.981C130.066 306.981 128.777 306.843 127.397 306.521C118.665 304.566 115.725 289.616 112.309 272.32C111.359 267.467 110.364 262.453 109.21 257.577C109.007 256.772 108.826 256.013 108.645 255.208C106.541 246.376 104.46 238.004 101.791 232.806C94.3261 218.155 81.0933 208.495 76.0943 207.437C75.3478 207.276 75.0085 207.368 74.9407 207.414C74.8276 207.69 74.443 209.369 79.5099 214.659C81.8172 217.051 82.3601 220.593 80.935 223.675C79.804 226.136 79.3742 228.39 79.6683 230.414C79.7361 230.92 79.3968 231.38 78.9218 231.449C78.4242 231.518 77.9718 231.173 77.9039 230.69C77.5646 228.298 78.0396 225.676 79.329 222.893C80.4374 220.501 80.0076 217.764 78.2432 215.924C74.0811 211.577 72.4751 208.541 73.3346 206.632C73.5156 206.241 74.0132 205.551 75.28 205.505C75.3026 205.505 75.3478 205.505 75.3704 205.505C80.5278 205.505 95.4119 216.292 103.397 231.955C106.156 237.337 108.283 245.824 110.409 254.771C110.59 255.553 110.771 256.335 110.975 257.117C112.128 262.039 113.124 267.076 114.096 271.952C117.24 287.937 120.204 303.025 127.804 304.727C142.213 307.97 147.868 291.18 154.383 271.768C156.961 264.132 159.608 256.22 163.001 248.929C163.205 248.469 163.747 248.285 164.2 248.492C164.652 248.699 164.833 249.251 164.63 249.711C161.282 256.887 158.635 264.753 156.102 272.343C150.107 290.122 144.452 306.981 131.288 306.981Z" fill="#000200"/>
<path d="M66.5712 228.505C66.4581 228.505 66.345 228.482 66.2319 228.436C61.1876 226.274 47.2536 221.329 43.3177 224.273C42.5712 224.848 42.2545 225.722 42.3676 226.964C42.4129 227.47 42.051 227.907 41.5533 227.953C41.0557 227.999 40.6259 227.631 40.5806 227.125C40.3544 224.756 41.3497 223.445 42.2545 222.801C45.738 220.202 54.017 222.18 60.0792 224.181C58.1339 223.284 56.0755 222.548 54.2206 221.881C50.3752 220.524 47.5703 219.535 46.9821 217.695C46.8238 217.212 46.7559 216.43 47.3893 215.487C51.099 209.944 72.9501 218.454 79.5552 221.214C80.0076 221.398 80.2338 221.927 80.0528 222.41C79.8719 222.87 79.329 223.1 78.8766 222.916C63.0877 216.361 50.7371 213.739 48.8822 216.545C48.6334 216.913 48.6787 217.074 48.7013 217.143C49.018 218.109 52.0943 219.213 54.8087 220.179C59.0387 221.674 64.3318 223.56 67.2724 227.01C67.5439 227.332 67.5665 227.792 67.3177 228.137C67.1367 228.367 66.8653 228.505 66.5712 228.505Z" fill="#000200"/>
<path d="M62.2281 231.357C60.8257 230.989 59.1291 230.437 57.3195 229.885C50.3299 227.677 42.4128 225.17 39.902 228.114C38.771 229.425 38.8841 231.472 40.2413 234.37C40.2413 234.393 40.2639 234.393 40.2639 234.416C40.7842 234.393 41.3045 234.416 41.8021 234.462C41.9604 234.209 41.9831 233.864 41.8473 233.588C40.8521 231.495 40.6485 230 41.2366 229.31C42.9783 227.263 51.2573 229.908 56.754 231.633C58.5863 232.208 60.3054 232.76 61.7531 233.151C62.2281 233.266 62.7258 232.99 62.8389 232.507C62.9972 231.978 62.7258 231.472 62.2281 231.357Z" fill="#000200"/>
<path d="M125.542 361.192C122.466 361.192 119.231 360.87 115.815 360.18C82.066 353.303 76.0264 305.693 73.131 282.831C72.8596 280.669 72.6108 278.76 72.3845 277.173C71.9548 274.275 71.4571 271.515 70.9369 269.008C70.8238 268.364 70.688 267.743 70.5297 267.122C68.0867 256.174 64.8973 248.883 61.7531 247.066C58.1791 244.996 53.6777 243.8 49.6965 242.742C44.132 241.27 39.7436 240.097 38.8388 237.038C38.5674 236.118 38.296 234.784 39.1555 233.841C40.7842 232.07 45.0141 232.944 58.2017 235.957C58.6767 236.072 58.9934 236.555 58.8803 237.038C58.7672 237.521 58.2922 237.843 57.8172 237.728C48.6786 235.635 41.4854 233.979 40.4901 235.06C40.3318 235.244 40.3544 235.75 40.5806 236.486C41.1913 238.556 45.557 239.729 50.1715 240.948C54.2432 242.029 58.8803 243.248 62.6579 245.456C67.5665 248.285 70.8011 259.969 72.2941 266.662C72.4524 267.283 72.6108 267.973 72.7239 268.64C73.2667 271.17 73.7644 273.953 74.1942 276.897C74.4204 278.507 74.6692 280.416 74.9406 282.601C77.7908 305.049 83.7173 351.785 116.2 358.409C151.51 365.631 168.226 330.326 168.385 329.958C168.588 329.498 169.131 329.314 169.583 329.521C170.036 329.728 170.217 330.28 170.013 330.74C169.832 331.062 155.559 361.192 125.542 361.192Z" fill="#000200"/>
<path d="M71.3893 266.846C71.5702 267.49 71.6833 268.134 71.8191 268.778C78.967 270.112 86.3865 269.905 93.5118 267.996C99.8907 266.271 106.428 262.683 110.138 257.347C109.934 256.542 109.753 255.76 109.572 254.978C105.727 261.97 96.5655 265.834 88.8068 267.168C82.9708 268.18 77.0896 268.042 71.3893 266.846Z" fill="#000200"/>
<path d="M138.413 359.214C138.028 359.214 137.666 358.961 137.553 358.57C135.834 352.866 129.908 347.116 122.126 343.62C112.332 339.204 101.451 339.158 92.3129 343.482C91.8605 343.689 91.3403 343.505 91.1141 343.045C90.9105 342.585 91.0915 342.056 91.5439 341.826C101.157 337.272 112.558 337.295 122.85 341.941C131.107 345.667 137.395 351.831 139.272 358.041C139.408 358.524 139.159 359.03 138.684 359.191C138.594 359.191 138.503 359.214 138.413 359.214Z" fill="#000200"/>
<path d="M334.281 295.458C320.663 295.458 313.923 274.252 308.878 258.405L308.539 257.347C306.073 249.527 303.947 242.765 301.685 239.752C301.391 239.361 301.459 238.786 301.844 238.464C302.228 238.165 302.794 238.234 303.11 238.625C305.553 241.891 307.747 248.768 310.258 256.749L310.598 257.807C317.203 278.599 324.26 296.953 337.877 293.066C352.445 288.903 355.86 263.833 358.892 241.707L358.959 241.178C359.095 240.35 359.186 239.568 359.299 238.763C360.543 229.632 361.855 220.984 364.072 215.349C370.541 198.881 384.452 186.622 389.519 186.231C390.809 186.139 391.329 186.76 391.555 187.151C392.618 188.968 391.284 192.188 387.483 196.972C385.945 198.904 385.787 201.641 387.076 203.803C388.682 206.494 389.429 209.093 389.293 211.531C389.27 212.037 388.841 212.428 388.343 212.405C387.845 212.382 387.461 211.945 387.483 211.439C387.574 209.369 386.918 207.115 385.516 204.746C383.842 201.94 384.068 198.352 386.058 195.822C390.673 189.98 390.13 188.324 389.972 188.071C389.926 188.048 389.587 187.979 388.841 188.209C383.955 189.773 371.717 200.698 365.7 216.016C363.551 221.467 362.262 230 361.018 238.993C360.905 239.798 360.792 240.58 360.679 241.408L360.611 241.914C357.512 264.592 354.006 290.306 338.307 294.768C336.927 295.274 335.57 295.458 334.281 295.458Z" fill="#000200"/>
<path d="M400.309 208.334C400.06 208.334 399.812 208.219 399.631 208.035C399.359 207.713 399.337 207.253 399.563 206.908C402.164 203.182 407.231 200.79 411.303 198.881C413.927 197.662 416.89 196.259 417.093 195.27C417.116 195.201 417.139 195.04 416.867 194.695C414.741 192.096 402.707 195.937 387.619 204.01C387.189 204.24 386.647 204.079 386.398 203.619C386.172 203.182 386.33 202.63 386.782 202.377C393.093 198.996 414.017 188.347 418.247 193.499C418.948 194.35 418.971 195.132 418.858 195.638C418.451 197.501 415.759 198.766 412.072 200.514C410.285 201.365 408.294 202.285 406.439 203.389C412.275 200.79 420.351 197.984 424.06 200.238C425.01 200.813 426.141 201.986 426.141 204.378C426.141 204.884 425.734 205.298 425.237 205.298C424.739 205.298 424.332 204.884 424.332 204.378C424.332 203.136 423.947 202.285 423.133 201.802C418.948 199.272 405.534 205.574 400.739 208.219C400.603 208.311 400.467 208.334 400.309 208.334Z" fill="#000200"/>
<path d="M405.308 212.497C404.946 212.497 404.607 212.267 404.471 211.899C404.29 211.416 404.539 210.91 405.014 210.726C406.371 210.22 408.023 209.507 409.764 208.771C416.505 205.873 424.151 202.584 426.933 205.275C428.177 206.471 428.268 208.518 427.182 211.531C427.001 212.014 426.503 212.244 426.028 212.083C425.553 211.922 425.327 211.393 425.485 210.91C426.277 208.725 426.345 207.23 425.689 206.586C423.766 204.723 415.759 208.173 410.466 210.45C408.701 211.209 407.027 211.922 405.647 212.451C405.512 212.474 405.399 212.497 405.308 212.497Z" fill="#000200"/>
<path d="M342.99 348.381C317.587 348.381 305.146 330.464 305.01 330.257C304.739 329.843 304.829 329.268 305.237 328.992C305.644 328.716 306.209 328.808 306.481 329.222C306.639 329.452 322.337 351.969 354.616 345.322C388.388 338.376 393.976 288.512 396.961 261.717C397.142 260.107 397.301 258.589 397.482 257.14C397.64 255.714 397.73 254.288 397.821 252.862C397.911 251.482 398.002 250.125 398.138 248.791C398.183 248.147 398.273 247.457 398.386 246.767C399.223 239.982 401.327 228.045 405.942 224.733C409.493 222.18 413.972 220.501 417.93 219.006C422.409 217.327 426.639 215.74 427.046 213.624C427.182 212.865 427.182 212.359 427.001 212.198C425.915 211.209 418.903 213.578 410.013 216.568C409.538 216.729 409.041 216.476 408.882 215.993C408.724 215.51 408.973 215.004 409.448 214.843C422.273 210.542 426.413 209.231 428.2 210.841C429.15 211.692 429.014 213.049 428.833 213.992C428.245 217.12 423.97 218.73 418.564 220.731C414.718 222.18 410.353 223.813 406.982 226.228C404.019 228.344 401.531 235.934 400.173 247.02C400.06 247.687 399.992 248.331 399.947 248.952C399.789 250.286 399.721 251.597 399.631 252.954C399.54 254.403 399.45 255.852 399.269 257.324C399.11 258.773 398.929 260.291 398.748 261.878C395.695 289.133 390.017 339.848 354.978 347.047C350.703 348.013 346.722 348.381 342.99 348.381Z" fill="#000200"/>
<path d="M399.291 246.974C399.178 247.641 399.11 248.285 399.065 248.952C392.075 250.999 384.679 251.528 377.418 250.332C370.903 249.251 364.072 246.33 359.864 241.385C360 240.557 360.09 239.775 360.204 238.97C364.705 245.548 374.183 248.492 382.032 249.044C387.891 249.435 393.727 248.699 399.291 246.974Z" fill="#000200"/>
<path d="M332.63 347.53C332.516 347.53 332.426 347.507 332.313 347.484C331.838 347.3 331.612 346.794 331.77 346.311C338.782 326.853 366.944 319.125 381.783 323.61C382.258 323.748 382.53 324.254 382.394 324.737C382.258 325.22 381.761 325.496 381.286 325.358C367.08 321.08 340.139 328.417 333.467 346.955C333.331 347.3 332.992 347.53 332.63 347.53Z" fill="#000200"/>
<path d="M244.592 83.651C240.475 79.58 231.54 75.647 212.336 80.04C212.041 80.109 211.793 80.316 211.702 80.615C211.589 80.914 211.634 81.236 211.815 81.466L215.661 86.825C215.887 87.147 216.271 87.285 216.633 87.17C224.799 84.686 231.766 84.985 236.268 87.998C239.027 89.838 240.701 92.69 241.108 96.255C242.149 105.271 225.274 107.709 225.116 107.732C224.664 107.801 224.324 108.215 224.347 108.675L225.093 123.947C225.116 124.43 225.523 124.821 225.998 124.821H229.278C229.527 124.821 229.753 124.729 229.934 124.545C230.092 124.361 230.205 124.131 230.183 123.878L229.844 112.953C233.237 112.194 246.582 108.629 248.573 98.279C249.659 92.483 248.256 87.285 244.592 83.651Z" fill="#000200"/>
<path d="M229.911 128.018H225.41C224.98 128.018 224.618 128.317 224.528 128.731L223.261 134.481C223.216 134.734 223.261 134.987 223.397 135.194C223.533 135.401 223.759 135.539 224.008 135.585L229.753 136.482C229.798 136.482 229.844 136.482 229.889 136.482C230.092 136.482 230.319 136.413 230.477 136.252C230.681 136.068 230.794 135.815 230.794 135.562V128.915C230.816 128.432 230.409 128.018 229.911 128.018Z" fill="#000200"/>
<rect x="52" y="324" width="366" height="39" fill="#A0DDE2" fill-opacity="0.8"/>
<rect width="488" height="460" transform="translate(0 1)" fill="white"/>
<path d="M59.8387 103.189L66.232 294.135H194.05L198.374 103.189H59.8387Z" fill="#F6C8E2"/>
<path d="M359.883 115.632C357.56 118.622 355.261 121.589 352.938 124.579C352.087 125.683 353.628 127.27 354.502 126.143C356.824 123.153 359.124 120.186 361.447 117.196C362.298 116.092 360.757 114.505 359.883 115.632Z" fill="#FE7122"/>
<path d="M338.542 130.26V144.681L349.327 138.931L338.542 130.26Z" fill="#FE7122"/>
<path d="M117.723 322.862C113.997 319.389 110.249 315.916 106.523 312.42C105.488 311.454 103.924 313.018 104.959 313.984C108.685 317.457 112.433 320.93 116.159 324.426C117.194 325.369 118.758 323.828 117.723 322.862Z" fill="#FE7122"/>
<path d="M143.618 135.044L150.241 143.554L162.015 135.044L152.816 125.085L143.618 135.044Z" fill="#8C5FF8"/>
<path d="M233.26 118.53C242.091 118.507 250.876 119.151 259.753 118.806C263.846 118.645 267.94 118.507 272.033 118.599C268.193 111.584 259.914 106.271 242.965 106.271C216.495 106.271 207.687 117.311 207.687 134.952C207.687 152.593 207.687 152.593 207.687 152.593L207.894 152.961C210.792 152.616 213.299 153.536 215.667 153.651C223.44 143.485 206.101 118.622 233.26 118.53Z" fill="#2D2D2D"/>
<path d="M252.003 168.325C251.382 168.325 250.899 167.842 250.899 167.221C250.899 166.6 251.382 166.117 252.003 166.117C254.073 166.117 255.775 165.565 256.556 164.645C256.993 164.116 257.154 163.495 257.016 162.713C256.717 160.965 252.854 159.999 251.014 159.792C250.462 159.723 250.025 159.263 250.025 158.688V148.591C250.025 147.97 250.508 147.487 251.129 147.487C251.75 147.487 252.233 147.97 252.233 148.591V157.745C254.28 158.113 258.672 159.24 259.178 162.345C259.408 163.771 259.086 165.059 258.212 166.071C256.993 167.52 254.786 168.325 252.003 168.325Z" fill="#2D2D2D"/>
<path d="M259.96 146.682V148.89C259.96 151.719 264.376 151.742 264.376 148.89V146.682C264.376 143.853 259.96 143.853 259.96 146.682Z" fill="#2D2D2D"/>
<path d="M229.006 146.682V148.89C229.006 151.719 233.421 151.742 233.421 148.89V146.682C233.421 143.853 229.006 143.853 229.006 146.682Z" fill="#2D2D2D"/>
<path d="M232.846 136.493C231.03 136.539 229.259 136.7 227.488 137.091C226.108 137.413 226.867 139.483 228.224 139.161C229.788 138.816 231.421 138.724 233.03 138.678C234.456 138.632 234.249 136.447 232.846 136.493Z" fill="#2D2D2D"/>
<path d="M265.065 136.493C263.754 136.217 262.375 136.171 261.064 135.78C259.707 135.389 258.833 137.413 260.19 137.804C261.685 138.241 263.226 138.333 264.72 138.678C266.146 138.977 266.445 136.792 265.065 136.493Z" fill="#2D2D2D"/>
<path d="M276.357 142.082C276.288 138.655 276.219 135.09 276.173 131.387C275.897 113.999 264.744 105.167 243.011 105.167C218.174 105.167 206.63 114.62 206.63 134.952V152.593C206.63 153.214 207.113 153.697 207.734 153.697C208.354 153.697 208.837 153.214 208.837 152.593V134.952C208.837 115.885 219.37 107.375 243.011 107.375C263.594 107.375 273.712 115.241 273.965 131.41C274.034 135.113 274.103 138.678 274.172 142.105C274.793 174.466 275.184 193.993 264.514 200.157C255.361 205.447 238.826 204.435 238.665 204.412C238.274 204.389 237.929 204.55 237.699 204.849C237.469 205.148 237.423 205.539 237.561 205.884C239.608 211.335 247.289 214.348 251.543 215.659C253.015 212.899 254.556 210.162 255.729 207.264V205.585C255.729 205.562 255.729 205.516 255.729 205.493C259.224 204.803 262.72 203.722 265.617 202.043C277.392 195.258 277.001 175.248 276.357 142.082Z" fill="#2D2D2D"/>
<path d="M256.165 204.435C255.752 204.412 255.338 204.642 255.131 205.033L241.309 232.633L213.184 202.664C212.77 202.227 212.08 202.204 211.62 202.618C211.183 203.032 211.16 203.722 211.574 204.182L240.803 235.301C241.01 235.531 241.309 235.646 241.608 235.646C241.654 235.646 241.723 235.646 241.769 235.623C242.114 235.577 242.436 235.347 242.597 235.025L256.188 207.908V204.435H256.165Z" fill="#2D2D2D"/>
<path d="M226.522 244.087C226.499 244.087 226.476 244.087 226.453 244.087C226.108 244.064 225.786 243.88 225.602 243.604L205.112 212.646C204.859 212.255 204.859 211.749 205.135 211.381L211.252 203.101L210.355 169.659C205.457 169.613 202.72 168.003 201.225 166.577C199.569 164.99 198.65 162.874 198.65 160.62C198.65 158.182 199.362 156.296 200.857 154.893C203.387 152.501 208.009 151.512 215.001 151.857C215.598 151.88 216.081 152.409 216.035 153.007C216.012 153.605 215.437 154.088 214.886 154.042C208.607 153.72 204.399 154.548 202.375 156.48C201.317 157.492 200.857 158.757 200.857 160.62C200.857 161.563 201.11 163.403 202.766 164.99C204.606 166.738 207.572 167.589 211.39 167.451C211.666 167.428 211.965 167.543 212.195 167.75C212.402 167.957 212.54 168.233 212.54 168.532L213.483 203.446C213.483 203.699 213.414 203.929 213.276 204.136L207.388 212.094L226.66 241.212L236.595 229.735C236.986 229.275 237.699 229.229 238.159 229.62C238.619 230.011 238.665 230.724 238.274 231.184L227.396 243.765C227.143 243.949 226.844 244.087 226.522 244.087Z" fill="#2D2D2D"/>
<path d="M253.015 241.005C252.693 241.005 252.394 240.867 252.164 240.614L243.264 230.103C242.965 229.758 242.919 229.275 243.126 228.884L255.131 206.321C255.269 206.045 255.522 205.838 255.82 205.769C256.119 205.7 256.441 205.746 256.694 205.907L262.306 209.541C262.72 209.817 262.904 210.3 262.766 210.783L254.027 240.246C253.912 240.637 253.59 240.936 253.199 241.005C253.176 241.005 253.107 241.005 253.015 241.005ZM245.449 229.252L252.555 237.647L260.466 210.944L256.556 208.414L245.449 229.252Z" fill="#2D2D2D"/>
<path d="M231.789 158.803C230.248 158.803 228.684 158.458 227.235 157.722C223.395 155.813 221.187 151.926 221.164 147.05C221.164 146.429 221.647 145.946 222.268 145.946C222.866 145.946 223.372 146.429 223.372 147.05C223.395 151.075 225.165 154.249 228.224 155.767C230.823 157.055 233.881 156.871 236.02 155.261C238.458 153.444 239.378 150.109 238.642 145.9C238.527 145.302 238.941 144.727 239.539 144.612C240.136 144.497 240.711 144.911 240.826 145.509C242.045 152.363 239.194 155.675 237.377 157.032C235.767 158.205 233.789 158.803 231.789 158.803Z" fill="#2D2D2D"/>
<path d="M263.065 157.561C261.708 157.561 260.351 157.239 259.086 156.595C255.521 154.778 253.475 150.799 253.475 145.693C253.475 145.072 253.958 144.589 254.579 144.589C255.2 144.589 255.682 145.072 255.682 145.693C255.682 149.948 257.292 153.214 260.098 154.64C262.283 155.767 264.881 155.56 266.836 154.134C269.251 152.363 270.286 149.074 269.642 145.072C269.55 144.474 269.964 143.899 270.562 143.807C271.16 143.715 271.735 144.129 271.826 144.727C272.608 149.58 271.252 153.651 268.147 155.905C266.629 156.986 264.858 157.561 263.065 157.561Z" fill="#2D2D2D"/>
<path d="M239.998 151.121C239.607 151.121 239.24 150.914 239.033 150.546C238.734 150.017 238.941 149.35 239.47 149.051C239.814 148.867 247.794 144.566 255.062 148.039C255.614 148.292 255.844 148.959 255.591 149.511C255.338 150.063 254.671 150.293 254.119 150.04C247.863 147.073 240.619 150.96 240.55 151.006C240.343 151.075 240.159 151.121 239.998 151.121Z" fill="#2D2D2D"/>
<path d="M259.707 171.039L256.004 171.844C254.625 172.143 255.2 174.259 256.579 173.96C257.821 173.684 259.063 173.431 260.282 173.155C261.685 172.856 261.087 170.74 259.707 171.039Z" fill="#2D2D2D"/>
<path d="M137.638 367.942C137.04 367.942 136.534 367.459 136.534 366.838C135.637 241.971 174.709 224.675 203.249 212.025L205.595 210.99C206.147 210.737 206.813 210.99 207.043 211.542C207.296 212.094 207.043 212.761 206.492 212.991L204.146 214.026C176.181 226.423 137.868 243.374 138.742 366.792C138.742 367.436 138.259 367.942 137.638 367.942Z" fill="#2D2D2D"/>
<path d="M180.068 367.942C179.447 367.942 178.964 367.459 178.964 366.838V289.42C178.964 288.799 179.447 288.316 180.068 288.316C180.689 288.316 181.171 288.799 181.171 289.42V366.838C181.171 367.436 180.689 367.942 180.068 367.942Z" fill="#2D2D2D"/>
<path d="M245.287 363.043C244.69 363.043 244.207 362.56 244.184 361.962L240.504 234.565C240.481 233.944 240.964 233.438 241.585 233.438C242.275 233.415 242.712 233.898 242.712 234.519L246.391 361.916C246.414 362.537 245.931 363.043 245.31 363.043C245.287 363.043 245.287 363.043 245.287 363.043Z" fill="#2D2D2D"/>
<path d="M301.401 365.665C300.826 365.665 300.343 365.228 300.297 364.653C296.18 313.524 294.225 287.189 294.501 286.384C294.685 285.809 295.329 285.487 295.904 285.694C296.433 285.855 296.732 286.384 296.64 286.913C296.548 289.282 300.09 334.523 302.504 364.492C302.55 365.09 302.091 365.619 301.493 365.688C301.47 365.665 301.447 365.665 301.401 365.665Z" fill="#2D2D2D"/>
<path d="M207.71 329.233C207.503 329.233 207.296 329.187 207.135 329.072L189.818 318.285C189.519 318.101 189.313 317.779 189.313 317.411L187.358 282.336C187.335 282.037 187.45 281.738 187.657 281.508C187.864 281.278 188.163 281.163 188.462 281.163H224.59C224.889 281.163 225.165 281.278 225.372 281.485C225.579 281.692 225.694 281.968 225.694 282.267L225.671 317.02C225.671 317.388 225.487 317.733 225.165 317.94L208.308 329.049C208.124 329.164 207.917 329.233 207.71 329.233ZM191.451 316.698L207.664 326.818L223.417 316.422L223.44 283.371H189.611L191.451 316.698Z" fill="#2D2D2D"/>
<path d="M316.349 292.111C316.303 292.111 316.257 292.111 316.211 292.111C314.693 292.042 310.094 291.858 306.23 268.237C301.999 242.224 285.211 220.995 261.34 211.496C260.765 211.266 260.489 210.622 260.719 210.07C260.949 209.495 261.593 209.219 262.145 209.449C286.729 219.247 304.022 241.097 308.392 267.892C311.772 288.684 315.544 289.903 316.28 289.926C316.901 289.995 320.143 289.282 324.03 273.642C326.077 265.454 327.709 254.575 329.434 243.052C332.585 222.03 335.873 200.272 342.129 191.302C350.247 179.641 368.231 172.281 390.101 182.125C412.684 192.291 408.338 209.035 408.292 209.219C408.131 209.817 407.395 211.358 406.797 211.197C406.222 211.036 406.015 209.219 406.176 208.621C406.337 208 409.993 193.487 389.204 184.126C368.483 174.811 351.558 181.642 343.945 192.567C337.989 201.123 334.747 222.605 331.642 243.374C329.894 254.943 328.261 265.891 326.192 274.171C323.179 286.223 319.959 292.111 316.349 292.111Z" fill="#2D2D2D"/>
<path d="M401.921 219.684C401.668 219.684 401.438 219.592 401.231 219.431C400.772 219.04 401.484 217.43 401.875 216.97C408.453 208.989 404.957 204.757 398.426 198.731C397.989 198.317 397.943 197.627 398.357 197.167C398.771 196.707 399.461 196.684 399.921 197.098C406.728 203.377 411.327 208.943 403.577 218.373C403.347 218.626 402.243 219.684 401.921 219.684Z" fill="#2D2D2D"/>
<path d="M380.465 228.815C380.442 229.068 380.373 229.298 380.235 229.528C379.913 230.149 378.993 230.609 377.751 230.747C375.198 231.023 371.059 229.942 367.77 225.986C362.895 220.075 361.791 215.176 361.768 215.13C361.63 214.532 361.055 214.164 360.457 214.279C359.859 214.417 359.491 214.992 359.606 215.59C359.652 215.82 360.825 221.041 366.069 227.389C369.495 231.552 373.865 233.001 376.969 233.001C377.314 233.001 377.659 232.978 377.981 232.955C379.407 232.794 380.603 232.311 381.408 231.552C381.086 230.655 380.764 229.735 380.465 228.815Z" fill="#2D2D2D"/>
<path d="M394.079 202.641C393.642 202.204 392.952 202.204 392.515 202.641C392.078 203.078 392.078 203.768 392.515 204.205C392.584 204.274 400.081 211.818 400.104 219.086C400.104 221.639 399.162 223.87 397.276 225.756C393.573 229.459 388.146 230.54 386.306 229.482C385.961 229.275 385.777 229.045 385.938 228.47C386.283 227.182 387.364 226.446 388.606 225.595C390.492 224.284 392.86 222.674 391.802 218.718C390.791 214.969 387.548 210.921 383.914 208.897C381.753 207.701 379.706 207.333 377.958 207.862C375.773 208.506 374.118 210.346 373.405 212.899C372.531 215.981 373.267 219.408 375.245 221.616C375.773 222.214 376.325 222.789 376.831 223.318C378.096 224.675 379.108 225.779 379.729 226.722C379.269 225.181 378.878 223.617 378.625 222.03C378.556 221.961 378.487 221.892 378.418 221.823C377.912 221.294 377.383 220.742 376.877 220.144C375.383 218.488 374.854 215.889 375.521 213.497C376.026 211.703 377.13 210.415 378.579 209.978C380.028 209.541 381.684 210.185 382.811 210.829C385.915 212.554 388.79 216.119 389.641 219.293C390.262 221.639 389.273 222.444 387.318 223.778C385.915 224.744 384.328 225.825 383.777 227.895C383.386 229.344 383.891 230.655 385.156 231.391C388.008 233.047 394.447 231.667 398.794 227.32C401.093 225.02 402.266 222.237 402.266 219.086C402.312 210.898 394.424 202.963 394.079 202.641Z" fill="#2D2D2D"/>
<path d="M408.154 207.172C407.901 207.172 408.085 206.321 407.878 206.16C407.418 205.769 407.349 205.079 407.74 204.596C407.74 204.596 408.361 203.745 409.855 199.973C410.706 197.88 410.637 194.522 408.637 191.762C406.958 189.462 403.324 186.817 395.574 187.346C394.953 187.392 394.447 186.932 394.401 186.311C394.355 185.713 394.815 185.184 395.436 185.138C404.198 184.54 408.43 187.691 410.43 190.451C412.937 193.878 412.983 198.11 411.902 200.778C410.292 204.826 409.58 205.815 409.419 206.022C409.212 206.275 408.476 207.172 408.154 207.172Z" fill="#2D2D2D"/>
<path d="M328.514 350.784C314.67 350.784 305.172 345.448 298.825 340.986C298.319 340.641 298.204 339.951 298.549 339.445C298.894 338.939 299.584 338.824 300.09 339.169C307.794 344.597 320.327 351.336 340.036 347.38C365.862 342.182 368.621 293.422 370.438 261.153C371.22 247.33 371.841 236.428 373.888 231.276C374.118 230.701 374.762 230.425 375.314 230.655C375.889 230.885 376.165 231.529 375.935 232.081C374.026 236.911 373.382 248.204 372.646 261.268C370.668 296.182 367.978 343.999 340.473 349.542C336.172 350.416 332.194 350.784 328.514 350.784Z" fill="#2D2D2D"/>
<path d="M372.646 239.05C358.687 243.236 343.647 238.544 334.471 227.251C333.574 226.147 332.033 227.711 332.907 228.815C342.566 240.683 358.595 245.559 373.244 241.166C374.578 240.752 374.003 238.636 372.646 239.05Z" fill="#2D2D2D"/>
<path d="M298.066 322.264C306.92 338.916 316.05 347.702 325.571 349.588C319.27 350.002 310.738 347.104 299.469 340.089L298.066 322.264Z" fill="#2D2D2D"/>
<path d="M145.963 283.371H83.9165C83.3185 283.371 82.8356 282.888 82.8126 282.313L76.4424 91.367C76.4424 91.068 76.5344 90.769 76.7414 90.562C76.9483 90.355 77.2243 90.217 77.5233 90.217H216.058C216.357 90.217 216.633 90.332 216.84 90.562C217.047 90.769 217.162 91.068 217.139 91.367L216.219 118.714C216.196 119.335 215.69 119.841 215.092 119.772C214.494 119.749 214.011 119.243 214.034 118.645L214.908 92.448H78.6731L84.9743 281.186H145.94C146.561 281.186 147.044 281.669 147.044 282.29C147.044 282.911 146.561 283.371 145.963 283.371Z" fill="#2D2D2D"/>
<path d="M78.3282 116.115C77.7303 116.115 77.2244 115.632 77.2244 115.034C77.2244 114.413 77.7073 113.93 78.3052 113.907L216.035 112.343C216.61 112.297 217.139 112.826 217.162 113.424C217.162 114.045 216.679 114.528 216.081 114.551L78.3282 116.115C78.3282 116.115 78.3512 116.115 78.3282 116.115Z" fill="#2D2D2D"/>
<path d="M128.577 187.898H101.693C101.095 187.898 100.612 187.415 100.589 186.817L100.06 161.586C100.037 160.988 100.52 160.482 101.141 160.459L129.083 159.723C129.382 159.723 129.681 159.838 129.888 160.045C130.095 160.252 130.21 160.551 130.21 160.85L129.681 186.817C129.658 187.415 129.175 187.898 128.577 187.898ZM102.774 185.69H127.496L127.979 161.954L102.291 162.644L102.774 185.69Z" fill="#2D2D2D"/>
<path d="M175.514 187.898H147.205C146.584 187.898 146.101 187.415 146.101 186.794V160.827C146.101 160.206 146.584 159.723 147.205 159.723H175.514C176.135 159.723 176.618 160.206 176.618 160.827V186.794C176.618 187.392 176.112 187.898 175.514 187.898ZM148.309 185.69H174.41V161.931H148.309V185.69Z" fill="#2D2D2D"/>
<path d="M166.499 239.763H146.193C145.618 239.763 145.158 239.326 145.089 238.751L142.513 210.53C142.49 210.231 142.582 209.932 142.789 209.702C142.996 209.472 143.272 209.334 143.571 209.334L175.468 207.77C175.767 207.77 176.066 207.862 176.273 208.069C176.503 208.276 176.618 208.575 176.618 208.874V229.436C176.618 230.057 176.135 230.54 175.514 230.54C174.893 230.54 174.41 230.057 174.41 229.436V210.024L144.813 211.473L147.205 237.532H166.499C167.12 237.532 167.603 238.015 167.603 238.636C167.603 239.257 167.12 239.763 166.499 239.763Z" fill="#2D2D2D"/>
<path d="M143.617 189.945C143.318 189.945 143.019 189.83 142.789 189.577C142.375 189.117 142.421 188.427 142.881 188.013L179.332 155.606C179.792 155.192 180.482 155.238 180.896 155.698C181.31 156.158 181.264 156.848 180.804 157.262L144.353 189.669C144.146 189.853 143.87 189.945 143.617 189.945Z" fill="white"/>
<path d="M101.164 189.945C100.911 189.945 100.636 189.853 100.429 189.669C99.9686 189.255 99.9456 188.565 100.36 188.105L128.301 157.17C128.715 156.71 129.405 156.687 129.865 157.101C130.325 157.515 130.348 158.205 129.934 158.665L101.992 189.577C101.762 189.83 101.463 189.945 101.164 189.945Z" fill="white"/>
<path d="M124.023 244.087C123.633 244.087 123.242 243.88 123.035 243.489L117.101 232.196C116.825 231.667 117.032 231 117.561 230.701C118.09 230.425 118.78 230.632 119.056 231.161L124.989 242.454C125.265 242.983 125.058 243.65 124.529 243.949C124.368 244.041 124.184 244.087 124.023 244.087Z" fill="#2D2D2D"/>
<path d="M124.023 92.4249C123.633 92.4249 123.265 92.2179 123.058 91.8499C122.759 91.3209 122.966 90.6539 123.495 90.3549L152.701 74.2549C153.023 74.0709 153.437 74.0709 153.759 74.2549L182.735 90.3549C183.264 90.6539 183.448 91.3209 183.172 91.8499C182.873 92.3789 182.206 92.5859 181.677 92.2869L153.23 76.4859L124.552 92.3099C124.391 92.3789 124.207 92.4249 124.023 92.4249Z" fill="#2D2D2D"/>
<path d="M83.9165 283.371H77.3623C76.7643 283.371 76.2814 282.888 76.2584 282.29L71.521 94.4949C71.521 94.1959 71.636 93.9199 71.843 93.6899C72.0499 93.4599 72.3259 93.3679 72.6249 93.3679H77.5463C78.1672 93.3679 78.6501 93.8509 78.6501 94.4719C78.6501 95.0929 78.1672 95.5759 77.5463 95.5759H73.7517L78.4201 281.163H83.8935C84.5144 281.163 84.9973 281.646 84.9973 282.267C84.9973 282.888 84.5374 283.371 83.9165 283.371Z" fill="#2D2D2D"/>
<path d="M416.433 266.995C416.433 266.995 412.822 262.671 407.165 261.061C401.508 259.428 401.761 237.233 385.616 237.854C372.669 238.36 371.197 253.31 374.003 263.292C376.786 273.274 369.38 275.367 371.772 281.485L385.708 276.954C392.263 284.383 405.463 279.323 402.841 271.388L416.433 266.995Z" fill="#FE7122"/>
<path d="M375.383 277.897C374.946 277.897 374.532 277.621 374.348 277.207C373.083 273.964 374.21 271.595 375.314 269.318C376.602 266.673 377.935 263.913 376.533 258.899C374.808 252.735 374.348 243.397 378.763 237.348C381.201 234.013 384.697 232.242 389.181 232.058C400.404 231.621 404.198 241.304 406.981 248.342C408.315 251.7 409.557 254.851 411.051 255.288C416.962 256.99 420.71 261.383 420.871 261.567C421.101 261.843 421.193 262.234 421.078 262.579C420.986 262.924 420.71 263.2 420.365 263.315L375.705 277.805C375.613 277.897 375.498 277.897 375.383 277.897ZM389.273 234.289C385.501 234.427 382.581 235.899 380.557 238.659C376.878 243.719 376.947 252.183 378.671 258.301C380.304 264.12 378.648 267.524 377.314 270.284C376.418 272.147 375.728 273.573 376.096 275.413L417.974 261.82C416.525 260.486 413.857 258.416 410.43 257.45C407.901 256.714 406.567 253.402 404.911 249.193C402.243 242.385 398.886 233.967 389.273 234.289Z" fill="#2D2D2D"/>
<path d="M397.506 277C394.309 277 390.975 275.827 388.491 273.021C388.077 272.561 388.123 271.871 388.583 271.457C389.043 271.066 389.733 271.089 390.147 271.549C393.597 275.459 399.093 275.482 402.542 273.504C405.187 271.986 406.245 269.594 405.417 267.064C405.233 266.489 405.532 265.868 406.107 265.661C406.682 265.477 407.303 265.776 407.51 266.351C408.683 269.893 407.211 273.343 403.646 275.39C401.921 276.402 399.76 277 397.506 277Z" fill="#2D2D2D"/>
<path d="M387.065 231.023C386.674 230.862 386.33 230.632 386.008 230.333C385.157 229.482 385.065 228.263 385.456 227.159C385.502 226.998 385.617 226.883 385.732 226.837C385.778 226.745 385.824 226.676 385.87 226.584C383.846 219.5 381.316 213.152 378.671 213.497C377.545 213.635 376.97 214.256 376.671 214.762C375.268 217.154 377.062 222.674 381.937 234.979C382.098 235.416 382.535 235.669 382.972 235.669C383.11 235.669 383.248 235.646 383.386 235.6C383.961 235.37 384.237 234.726 384.007 234.174C381.408 227.619 377.499 217.729 378.579 215.889C378.625 215.82 378.671 215.728 378.832 215.682C380.212 216.188 383.202 224.33 385.364 233.438C385.502 234.036 386.1 234.404 386.697 234.266C387.295 234.128 387.663 233.53 387.525 232.932C387.364 232.288 387.226 231.644 387.065 231.023Z" fill="#2D2D2D"/>
<path d="M365.586 274.217C359.078 268.467 358.227 259.428 363.838 252.735C364.735 251.654 363.194 250.09 362.274 251.171C355.927 258.761 356.571 269.203 364.022 275.781C365.08 276.724 366.644 275.16 365.586 274.217Z" fill="#40BBC3"/>
<path d="M349.557 279.438C335.713 272.216 341.899 255.265 349.281 245.789C350.132 244.685 348.591 243.121 347.717 244.225C339.484 254.782 333.206 273.389 348.453 281.324C349.718 282.014 350.822 280.105 349.557 279.438Z" fill="#40BBC3"/>
<path d="M415.26 235.623C413.903 235.186 413.328 237.302 414.685 237.739C421.837 240.085 430.668 245.605 427.701 254.46C427.241 255.817 429.38 256.392 429.817 255.035C433.198 244.961 423.539 238.337 415.26 235.623Z" fill="#40BBC3"/>
<path d="M419.33 223.249C417.951 223.065 417.353 225.181 418.756 225.365C435.957 227.78 445.501 245.697 437.521 261.314C436.877 262.579 438.786 263.683 439.43 262.418C447.962 245.697 438.05 225.871 419.33 223.249Z" fill="#40BBC3"/>
</g>
<defs>
<clipPath id="clip0_92_470">
<rect width="480" height="460" fill="white"/>
</clipPath>
</defs>
</svg>
