<svg width="488" height="460" viewBox="0 0 488 460" fill="none" xmlns="http://www.w3.org/2000/svg">
<rect width="488" height="460" fill="white"/>
<path d="M354.294 139.495L301.079 160.678C306.69 178.043 318.281 193.131 335.161 201.848C343.647 206.241 352.915 208.564 362.182 208.84L354.294 139.495Z" fill="#F6C8E2"/>
<path d="M63.0582 225.308L69.3595 221.536L75.0397 229.103L69.0375 232.875L63.0582 225.308Z" fill="#FFCB56"/>
<path d="M139.11 324.162L171.053 224.319L200.121 220.11L213.092 325.197L198.512 324.898L194.74 282.785L161.555 283.084L151.229 325.197L139.11 324.162Z" fill="#FFCB56"/>
<path d="M282.29 257.692L285.211 264.868C285.211 264.868 301.769 260.176 305.77 265.098C309.174 269.307 309.749 276.552 309.749 276.552C309.749 276.552 290.04 278.3 289.212 296.953C288.385 315.606 303.218 302.312 313.98 297.758L315.728 301.507L326.1 299.023C326.1 299.023 321.546 280.784 318.626 267.513C315.728 254.242 302.206 248.561 282.29 257.692Z" fill="#A0DDE2"/>
<path d="M390.492 153.065C387.41 148.879 384.306 144.67 381.224 140.484C380.534 139.541 378.924 140.461 379.637 141.427C382.719 145.613 385.823 149.822 388.905 154.008C389.595 154.951 391.205 154.031 390.492 153.065Z" fill="#FF3857"/>
<path d="M390.722 141.473L378.74 150.65C377.82 151.363 378.717 152.973 379.683 152.237C383.685 149.178 387.663 146.119 391.665 143.06C392.585 142.347 391.665 140.737 390.722 141.473Z" fill="#FF3857"/>
<path d="M347.694 89.171L339.484 102.465C338.863 103.477 340.45 104.397 341.071 103.408C343.808 98.969 346.544 94.553 349.281 90.114C349.925 89.079 348.315 88.159 347.694 89.171Z" fill="#F6C8E2"/>
<path d="M87.7342 167.348C87.7112 167.348 87.6652 167.348 87.6422 167.348C87.3892 167.325 87.1593 167.187 86.9983 167.003L67.8646 142.37C67.7037 142.186 67.6577 141.933 67.6807 141.68C67.7037 141.427 67.8416 141.22 68.0256 141.059L111.766 107.042C111.95 106.881 112.203 106.812 112.456 106.858C112.709 106.881 112.916 107.019 113.077 107.203L130.831 130.042C131.13 130.433 131.084 130.985 130.693 131.307L88.3321 167.118C88.1711 167.256 87.9412 167.348 87.7342 167.348ZM69.8884 141.956L87.8722 165.094L128.807 130.479L112.157 109.066L69.8884 141.956Z" fill="#000200"/>
<path d="M138.374 104.765C138.19 104.535 137.868 104.42 137.569 104.42L112.226 106.858C111.881 106.881 111.605 107.111 111.467 107.41C111.329 107.709 111.375 108.077 111.582 108.353L129.336 131.192C129.52 131.422 129.773 131.56 130.072 131.56C130.118 131.56 130.187 131.56 130.233 131.537C130.578 131.468 130.854 131.238 130.946 130.893L138.558 105.639C138.65 105.317 138.581 105.018 138.374 104.765ZM129.704 128.639L114.066 108.537L124.99 107.502L132.97 117.76L129.704 128.639Z" fill="#000200"/>
<path d="M83.7327 162.196C83.4798 162.196 83.2268 162.081 83.0428 161.874C82.6979 161.483 82.7439 160.908 83.1348 160.563L123.817 125.143C124.208 124.798 124.783 124.844 125.128 125.235C125.473 125.626 125.427 126.201 125.036 126.546L84.3537 161.966C84.1697 162.127 83.9397 162.196 83.7327 162.196Z" fill="#000200"/>
<path d="M75.0398 151.018C74.7638 151.018 74.4879 150.903 74.3039 150.65C73.9819 150.259 74.0739 149.661 74.4649 149.362L118.205 115.345C118.619 115.023 119.194 115.115 119.493 115.506C119.815 115.897 119.723 116.495 119.332 116.794L75.5917 150.811C75.4308 150.949 75.2238 151.018 75.0398 151.018Z" fill="#000200"/>
<path d="M80.0302 170.108C79.5472 170.108 79.0643 170.085 78.5813 170.039C75.0398 169.648 71.8892 167.923 69.6814 165.117L65.496 159.827C63.3112 157.067 62.3223 153.594 62.7593 150.098C63.1732 146.579 64.944 143.451 67.7497 141.289L68.0256 141.082C68.4396 140.76 69.0145 140.829 69.3135 141.243C69.6354 141.634 69.5435 142.232 69.1525 142.531L68.8765 142.738C66.4848 144.601 64.967 147.292 64.5991 150.305C64.2311 153.318 65.082 156.285 66.9678 158.677L71.1533 163.967C73.039 166.359 75.7527 167.854 78.7883 168.199C81.8239 168.521 84.7906 167.647 87.1593 165.715C87.5502 165.393 88.1252 165.439 88.4701 165.853C88.7921 166.244 88.7231 166.819 88.3321 167.141C85.9404 169.073 83.0428 170.108 80.0302 170.108Z" fill="#000200"/>
<path d="M250.968 369.219C250.922 369.219 250.899 369.219 250.853 369.219L126.162 353.648C125.726 353.602 125.381 353.234 125.358 352.797L120.804 296.447C120.758 295.941 121.149 295.504 121.655 295.458C122.161 295.412 122.207 292.928 122.253 293.434L127.151 351.9L250.002 367.241L241.792 194.649L113.008 177.376L119.148 253.161C119.194 253.667 118.803 254.104 118.297 254.15C117.792 254.173 117.355 253.805 117.309 253.299L111.076 176.364C111.053 176.088 111.168 175.812 111.352 175.628C111.559 175.444 111.835 175.352 112.111 175.375L242.781 192.901C243.218 192.97 243.563 193.338 243.586 193.775L251.888 368.23C251.911 368.506 251.796 368.759 251.589 368.943C251.428 369.127 251.198 369.219 250.968 369.219Z" fill="#000200"/>
<path d="M250.968 369.219C250.531 369.219 250.14 368.897 250.071 368.46C249.979 367.977 250.278 367.517 250.761 367.402L372.324 337.755L359.492 224.894C359.423 224.388 359.791 223.928 360.297 223.882C360.826 223.836 361.263 224.181 361.309 224.687L374.233 338.353C374.279 338.813 373.98 339.25 373.543 339.365L361.608 342.286L361.884 356.178C361.884 356.661 361.539 357.052 361.056 357.121L251.083 369.242C251.037 369.219 251.014 369.219 250.968 369.219ZM359.768 342.7L265.042 365.815L360.044 355.35L359.768 342.7Z" fill="#000200"/>
<path d="M156.749 321.862C156.726 321.862 156.703 321.862 156.68 321.862L144.56 320.827C144.284 320.804 144.031 320.643 143.87 320.413C143.709 320.183 143.663 319.884 143.755 319.608L175.721 219.765C175.836 219.42 176.112 219.19 176.457 219.121L205.526 214.912C205.779 214.889 206.032 214.935 206.216 215.096C206.423 215.257 206.538 215.464 206.561 215.717L219.554 320.804C219.577 321.08 219.508 321.333 219.324 321.54C219.14 321.747 218.887 321.839 218.611 321.839L204.008 321.54C203.548 321.54 203.157 321.172 203.111 320.689L199.431 279.427L167.81 279.703L157.646 321.126C157.531 321.586 157.163 321.862 156.749 321.862ZM204.882 319.746L217.576 319.999L204.836 216.89L177.285 220.892L145.848 319.079L156.036 319.953L166.201 278.599C166.293 278.185 166.661 277.909 167.097 277.886L200.282 277.587C200.765 277.587 201.156 277.955 201.202 278.438L204.882 319.746Z" fill="#000200"/>
<path d="M299.676 303.301C298.618 303.301 297.652 303.071 296.802 302.542C294.548 301.162 293.582 297.919 293.812 292.675C294.571 275.816 310.232 272.182 314.256 271.515C313.98 269.514 313.107 264.523 310.6 261.441C307.633 257.784 295.445 260.245 291.006 261.51C290.546 261.648 290.063 261.395 289.902 260.958L286.982 253.782C286.798 253.322 287.005 252.793 287.442 252.586C298.48 247.526 308.438 246.675 315.521 250.194C320.466 252.678 323.777 257.117 325.088 263.051C327.963 276.161 332.493 294.354 332.539 294.538C332.608 294.768 332.562 295.021 332.424 295.251C332.286 295.458 332.079 295.619 331.849 295.665L321.478 298.149C321.041 298.241 320.604 298.034 320.42 297.643L319.04 294.699C316.947 295.642 314.693 296.907 312.509 298.103C307.748 300.771 303.195 303.301 299.676 303.301ZM303.77 257.646C307.219 257.646 310.416 258.29 312.026 260.268C315.567 264.638 316.165 271.929 316.188 272.228C316.234 272.734 315.843 273.171 315.36 273.217C314.578 273.286 296.457 275.126 295.675 292.744C295.468 297.206 296.181 299.966 297.79 300.978C300.527 302.68 306.184 299.552 311.658 296.516C314.164 295.113 316.786 293.687 319.178 292.652C319.638 292.468 320.167 292.652 320.374 293.112L321.822 296.194L330.561 294.101C329.596 290.26 325.824 274.919 323.317 263.465C322.144 258.106 319.178 254.081 314.739 251.873C308.369 248.699 299.262 249.412 289.074 253.92L291.351 259.509C293.444 258.934 298.871 257.646 303.77 257.646Z" fill="#000200"/>
<path d="M268.538 321.862C268.354 321.862 268.17 321.816 268.009 321.701C267.779 321.54 267.641 321.31 267.618 321.034L259.477 248.929C259.431 248.492 259.684 248.078 260.121 247.94L276.426 242.742C276.909 242.581 277.438 242.857 277.576 243.34C277.737 243.823 277.461 244.352 276.978 244.49L261.409 249.458L269.343 319.746L285.234 315.376C285.717 315.238 286.223 315.537 286.361 316.02C286.499 316.503 286.2 317.009 285.717 317.147L268.791 321.816C268.699 321.862 268.607 321.862 268.538 321.862Z" fill="#A0DDE2"/>
<path d="M345.671 297.252C345.234 297.252 344.866 296.953 344.774 296.516C344.659 296.01 344.981 295.527 345.487 295.412L355.191 293.319L349.281 243.731C349.212 243.225 349.58 242.765 350.086 242.696C350.592 242.627 351.052 242.995 351.121 243.501L357.146 293.94C357.192 294.423 356.893 294.86 356.433 294.952L345.901 297.206C345.809 297.252 345.74 297.252 345.671 297.252Z" fill="#A0DDE2"/>
<path d="M281.692 332.258C281.278 332.258 280.91 331.982 280.795 331.568C280.68 331.085 280.956 330.579 281.462 330.441L350.707 312.754C351.213 312.616 351.696 312.915 351.834 313.421C351.949 313.904 351.673 314.41 351.167 314.548L281.922 332.235C281.853 332.235 281.784 332.258 281.692 332.258Z" fill="#F6C8E2"/>
<path d="M223.234 353.717C222.935 353.717 222.636 353.579 222.475 353.303C222.199 352.889 222.314 352.314 222.728 352.015L234.709 343.988L222.59 331.982C222.222 331.614 222.222 331.039 222.59 330.671C222.958 330.303 223.533 330.303 223.901 330.671L236.825 343.459C237.032 343.643 237.124 343.919 237.101 344.195C237.078 344.471 236.917 344.724 236.687 344.862L223.763 353.51C223.602 353.648 223.418 353.717 223.234 353.717Z" fill="#A0DDE2"/>
<path d="M239.194 193.223C239.171 192.763 238.849 192.395 238.389 192.326L220.75 189.957C220.474 189.911 220.198 190.003 220.014 190.187C219.807 190.371 219.692 190.647 219.715 190.9L222.314 251.574C222.337 251.942 222.567 252.264 222.912 252.402C223.027 252.448 223.119 252.471 223.234 252.471C223.486 252.471 223.739 252.379 223.9 252.172L234.042 241.362L239.148 249.32C239.378 249.665 239.791 249.826 240.205 249.711C240.596 249.596 240.872 249.228 240.849 248.791L239.194 193.223Z" fill="#000200"/>
<path d="M304 294.975C303.08 294.975 302.252 294.768 301.608 294.262C300.665 293.526 300.251 292.537 300.366 291.387C300.803 287.293 308.507 281.865 315.935 278.3C316.188 278.185 316.464 278.185 316.717 278.3C316.97 278.415 317.154 278.645 317.223 278.898L319.201 286.373C319.293 286.718 319.178 287.109 318.879 287.339C317.062 288.788 308.967 294.975 304 294.975ZM315.751 280.462C308.254 284.211 302.505 288.903 302.229 291.594C302.183 292.1 302.344 292.468 302.781 292.813C304.897 294.446 312.371 290.099 317.292 286.281L315.751 280.462Z" fill="#000200"/>
<path d="M169.489 272.297C169.213 272.297 168.937 272.182 168.776 271.952C168.592 271.722 168.523 271.423 168.592 271.147L179.401 228.045C179.493 227.677 179.792 227.424 180.16 227.355L197.477 224.641C197.73 224.595 198.006 224.664 198.213 224.848C198.42 225.009 198.535 225.262 198.558 225.538L200.052 270.503C200.052 270.756 199.96 270.986 199.799 271.17C199.638 271.354 199.408 271.446 199.156 271.469L169.535 272.297C169.512 272.297 169.489 272.297 169.489 272.297ZM181.057 229.08L170.685 270.411L198.167 269.629L196.741 226.619L181.057 229.08Z" fill="#000200"/>
<path d="M242.689 194.764C242.321 194.764 241.976 194.534 241.838 194.189C241.654 193.706 241.884 193.177 242.344 192.993L351.604 149.523C351.88 149.408 352.179 149.431 352.409 149.592C352.662 149.73 352.823 149.983 352.846 150.282L356.249 180.159C356.318 180.665 355.95 181.125 355.444 181.171C354.938 181.217 354.478 180.872 354.432 180.366L351.167 151.685L243.034 194.718C242.919 194.741 242.804 194.764 242.689 194.764Z" fill="#000200"/>
<path d="M154.886 231.909C154.725 231.909 154.564 231.863 154.426 231.794L130.555 218.086C130.256 217.902 130.072 217.58 130.095 217.235C130.118 216.89 130.325 216.568 130.647 216.43L154.518 206.264C154.978 206.057 155.53 206.287 155.737 206.747C155.944 207.207 155.714 207.759 155.254 207.966L133.085 217.396L155.346 230.184C155.783 230.437 155.944 231.012 155.691 231.449C155.507 231.748 155.208 231.909 154.886 231.909Z" fill="#A0DDE2"/>
<path d="M243.701 188.232C243.195 188.232 242.781 187.818 242.781 187.312C242.781 186.806 243.195 186.392 243.701 186.392C246.277 186.392 248.346 185.702 249.358 184.506C249.956 183.816 250.163 182.942 249.979 181.907C249.565 179.446 244.345 178.342 242.551 178.158C242.091 178.112 241.723 177.721 241.723 177.238V165.301C241.723 164.795 242.137 164.381 242.643 164.381C243.149 164.381 243.563 164.795 243.563 165.301V176.41C245.748 176.755 251.175 177.974 251.773 181.585C252.026 183.149 251.681 184.575 250.738 185.679C249.404 187.312 246.829 188.232 243.701 188.232Z" fill="#000200"/>
<path d="M252.877 162.748V165.37C252.877 168.728 258.097 168.728 258.097 165.37V162.771C258.097 159.413 252.877 159.39 252.877 162.748Z" fill="#000200"/>
<path d="M218.013 162.748V165.37C218.013 168.728 223.234 168.728 223.234 165.37V162.771C223.234 159.413 218.013 159.39 218.013 162.748Z" fill="#000200"/>
<path d="M220.842 150.65C218.726 150.972 216.656 151.409 214.656 152.145C213.092 152.72 214.265 155.043 215.828 154.468C217.622 153.824 219.508 153.479 221.394 153.203C223.05 152.95 222.498 150.397 220.842 150.65Z" fill="#000200"/>
<path d="M259.224 151.179C257.637 150.972 256.005 151.041 254.441 150.719C252.808 150.374 251.98 152.835 253.613 153.18C255.407 153.548 257.223 153.525 259.04 153.778C260.719 154.008 260.88 151.386 259.224 151.179Z" fill="#000200"/>
<path d="M303.701 158.746C299.768 151.478 292.041 147.223 283.946 148.143C283.854 139.081 282.29 127.903 271.735 122.544C270.309 120.198 268.584 118.082 266.583 116.196C260.512 108.215 249.519 104.305 233.375 104.305C216.633 104.305 205.043 107.962 198.236 115.598C186.254 117.438 177.193 126.638 175.353 139.081C159.163 134.182 143.042 141.565 131.728 153.433C125.772 159.666 120.137 169.326 121.839 177.583L197.799 187.772C197.822 187.749 197.822 187.726 197.822 187.726C197.822 187.657 197.845 187.565 197.845 187.496C198.075 187.335 198.236 187.059 198.236 186.76C198.259 182.206 197.04 178.595 196.971 178.434C196.833 178.043 196.511 177.79 196.051 177.813C191.451 177.997 187.818 176.962 185.587 174.8C183.54 172.822 183.218 170.545 183.218 169.372C183.218 168.038 183.586 166.083 185.334 164.427C188.163 161.736 193.774 160.54 201.593 160.931C201.961 160.954 202.628 160.609 203.295 160.379C215.805 154.905 221.003 124.683 221.003 124.683C226.453 129.72 256.74 139.817 270.47 141.726C270.516 143.704 270.539 145.636 270.585 147.522C270.838 160.287 270.907 173.029 270.608 182.436C270.585 182.942 271.85 182.022 271.827 182.183C271.781 182.827 274.655 181.056 278.197 179.653L306.368 168.452C306.184 165.14 305.356 161.851 303.701 158.746Z" fill="#000200"/>
<path d="M219.968 174.087C218.197 174.087 216.403 173.673 214.748 172.845C210.355 170.66 207.825 166.175 207.779 160.563C207.779 160.057 208.193 159.643 208.699 159.643C209.205 159.643 209.619 160.057 209.619 160.563C209.642 165.462 211.804 169.326 215.552 171.189C218.749 172.776 222.544 172.546 225.165 170.568C228.178 168.314 229.305 164.243 228.408 159.114C228.316 158.608 228.661 158.125 229.144 158.033C229.65 157.964 230.133 158.286 230.225 158.769C231.627 166.658 228.362 170.453 226.292 172.017C224.498 173.397 222.268 174.087 219.968 174.087Z" fill="#000200"/>
<path d="M256.924 172.592C255.384 172.592 253.843 172.224 252.394 171.488C248.3 169.418 245.955 164.841 245.955 158.93C245.955 158.424 246.369 158.01 246.875 158.01C247.381 158.01 247.794 158.424 247.794 158.93C247.794 164.105 249.772 168.084 253.222 169.832C255.935 171.212 259.155 170.982 261.593 169.188C264.559 167.026 265.824 162.978 265.042 158.125C264.95 157.619 265.295 157.136 265.801 157.067C266.307 156.998 266.767 157.32 266.859 157.826C267.756 163.392 266.215 168.084 262.674 170.683C260.972 171.971 258.948 172.592 256.924 172.592Z" fill="#000200"/>
<path d="M229.673 164.979C229.351 164.979 229.029 164.795 228.868 164.496C228.615 164.059 228.776 163.484 229.236 163.231C229.627 163.024 238.895 158.033 247.312 162.035C247.772 162.242 247.979 162.794 247.749 163.254C247.519 163.714 246.99 163.921 246.507 163.691C238.964 160.103 230.202 164.795 230.133 164.841C229.972 164.956 229.811 164.979 229.673 164.979Z" fill="#000200"/>
<path d="M438.326 255.967C427.632 193.752 405.371 181.884 382.926 178.342C352.593 173.535 330.561 186.024 317.476 215.487C310.531 231.127 311.198 234.715 312.784 236.187C314.348 237.659 316.947 236.555 318.764 235.589C322.811 233.45 324.099 229.908 325.341 226.481C326.008 224.618 326.721 222.686 327.871 220.961C327.871 220.892 327.871 220.8 327.894 220.708C328.147 219.949 328.4 219.167 328.607 218.385C328.607 218.362 328.63 218.316 328.63 218.293C328.262 218.063 327.756 218.109 327.434 218.454C325.41 220.731 324.467 223.33 323.57 225.837C322.351 229.218 321.293 232.116 317.867 233.933C315.107 235.405 314.256 235.037 314.026 234.807C313.359 234.186 312.532 231.127 319.155 216.2C331.849 187.611 353.214 175.467 382.627 180.136C404.405 183.586 426 195.201 436.509 256.266C441.546 285.614 437.958 308.2 425.839 323.449C409.58 343.896 380.925 347.783 360.757 348.933C360.251 348.956 359.86 349.393 359.883 349.899C359.906 350.382 360.32 350.773 360.803 350.773C360.826 350.773 360.849 350.773 360.849 350.773C381.362 349.6 410.545 345.621 427.264 324.599C439.752 308.936 443.454 285.844 438.326 255.967Z" fill="#000200"/>
<path d="M335.161 232.921C335.092 232.921 335.023 232.921 334.954 232.898C329.894 231.748 326.974 229.816 326.008 226.964C324.467 222.433 327.779 215.809 337.46 204.079C337.782 203.688 338.357 203.619 338.771 203.964C339.162 204.286 339.208 204.861 338.886 205.275C329.802 216.269 326.468 222.594 327.756 226.389C328.491 228.574 330.998 230.115 335.368 231.127C335.874 231.242 336.173 231.725 336.058 232.231C335.943 232.622 335.575 232.921 335.161 232.921Z" fill="#000200"/>
<path d="M343.509 236.509C343.486 236.509 343.463 236.509 343.44 236.509C338.081 236.049 334.77 234.209 333.62 231.012C330.929 223.698 340.703 212.75 345.027 208.403C345.395 208.035 345.969 208.035 346.337 208.403C346.705 208.771 346.705 209.346 346.337 209.714C337.966 218.155 333.758 226.067 335.345 230.391C336.242 232.829 339.024 234.278 343.601 234.669C344.107 234.715 344.475 235.152 344.452 235.658C344.383 236.141 343.992 236.509 343.509 236.509Z" fill="#000200"/>
<path d="M369.38 303.278C369.243 303.278 369.174 303.278 369.174 303.278C368.668 303.255 368.277 302.818 368.3 302.312C368.323 301.806 368.783 301.415 369.266 301.438C369.955 301.484 385.984 301.99 387.456 279.082C388.974 255.668 384.421 235.957 374.67 223.606C373.359 221.927 371.381 220.915 369.243 220.8C367.081 220.685 364.965 221.513 363.447 223.054C359.63 226.941 356.916 229.356 355.352 230.207C354.432 230.713 353.903 231.219 353.834 231.633C353.742 232.254 354.57 233.174 355.329 234.002C355.996 234.715 356.663 235.474 357.054 236.302C357.675 237.636 357.077 239.269 355.605 240.396C353.489 241.983 349.465 242.512 345.072 238.763C337.943 232.668 342.543 225.331 350.155 213.21C350.431 212.773 351.006 212.658 351.42 212.911C351.857 213.187 351.972 213.762 351.719 214.176C343.624 227.056 340.588 232.461 346.268 237.337C349.833 240.396 352.915 240.097 354.478 238.901C355.237 238.326 355.605 237.567 355.375 237.061C355.122 236.486 354.524 235.842 353.972 235.244C352.938 234.117 351.765 232.852 352.018 231.334C352.179 230.299 352.984 229.402 354.455 228.574C355.421 228.045 357.537 226.412 362.136 221.743C364.022 219.811 366.667 218.799 369.335 218.937C372.002 219.075 374.463 220.363 376.119 222.456C386.168 235.175 390.837 255.346 389.296 279.197C387.801 302.542 371.427 303.278 369.38 303.278Z" fill="#000200"/>
<path d="M314.118 210.979C312.831 210.979 311.474 210.634 310.163 209.737C308.921 208.886 308.76 207.828 308.829 207.069C309.473 200.215 335.253 188.761 338.173 187.473C338.633 187.266 340.588 186.231 340.795 186.714C341.002 187.174 339.392 188.968 338.909 189.175C323.133 196.075 310.968 203.849 310.669 207.253C310.646 207.529 310.692 207.851 311.221 208.219C314.141 210.22 317.246 208.564 319.753 207.23C320.535 206.816 321.224 206.448 321.845 206.218C322.328 206.057 322.857 206.31 323.018 206.793C323.179 207.276 322.926 207.805 322.443 207.966C321.96 208.127 321.339 208.472 320.604 208.863C318.879 209.737 316.579 210.979 314.118 210.979Z" fill="#000200"/>
<path d="M400.588 244.122C394.723 244.122 388.974 242.857 384.306 240.258C383.869 240.005 383.708 239.453 383.961 238.993C384.214 238.556 384.766 238.395 385.226 238.625C395.137 244.168 410.982 243.179 420.526 236.417C424.459 233.634 428.897 228.758 427.632 221.329C427.54 220.823 427.885 220.34 428.391 220.271C428.897 220.202 429.38 220.524 429.449 221.03C430.553 227.562 427.77 233.565 421.584 237.935C415.812 242.029 408.108 244.122 400.588 244.122Z" fill="#000200"/>
<path d="M124.99 342.976C124.829 342.976 124.668 342.93 124.507 342.838C110.041 334.213 100.958 322.322 97.485 307.441C92.8626 287.73 99.5547 267.835 107.328 255.783C108.524 253.92 109.513 251.666 110.478 249.504C112.249 245.479 113.928 241.684 116.849 240.074C117.286 239.821 117.86 239.982 118.113 240.442C118.366 240.879 118.182 241.454 117.745 241.684C115.354 242.995 113.813 246.514 112.18 250.24C111.191 252.494 110.179 254.817 108.892 256.795C101.326 268.525 94.8173 287.891 99.3018 307.027C102.659 321.402 111.467 332.902 125.473 341.251C125.909 341.504 126.047 342.079 125.794 342.516C125.611 342.815 125.312 342.976 124.99 342.976Z" fill="#000200"/>
<path d="M122.322 304.635C121.977 304.635 121.678 304.451 121.494 304.129C118.642 298.678 119.838 294.561 121.908 292.537C123.978 290.513 127.082 290.168 129.796 291.663C134.602 294.285 137.063 293.917 137.569 293.043C138.259 291.801 136.465 287.707 128.991 283.498C125.795 281.681 122.851 281.313 120.229 282.371C116.366 283.935 113.192 288.604 111.053 295.872C110.915 296.355 110.386 296.631 109.904 296.493C109.421 296.355 109.145 295.826 109.283 295.343C111.582 287.5 115.124 282.417 119.539 280.646C122.713 279.358 126.185 279.772 129.888 281.865C137.868 286.396 140.605 291.364 139.179 293.917C138.167 295.757 134.924 296.562 128.922 293.273C126.921 292.169 124.668 292.399 123.196 293.848C121.609 295.412 120.758 298.701 123.127 303.278C123.357 303.738 123.196 304.29 122.736 304.52C122.598 304.589 122.46 304.635 122.322 304.635Z" fill="#000200"/>
<path d="M106.385 288.65C106.293 288.65 106.201 288.627 106.109 288.604C105.626 288.443 105.35 287.937 105.488 287.454C107.558 280.738 111.237 275.908 116.136 273.47C120.436 271.331 125.519 271.17 130.463 272.987C138.167 275.816 142.146 278.484 142.582 281.175C142.72 282.049 142.559 283.337 140.996 284.625C138.259 286.856 134.235 286.764 134.051 286.741C133.545 286.718 133.131 286.304 133.154 285.798C133.177 285.292 133.591 284.947 134.097 284.901C134.12 284.901 137.638 284.97 139.823 283.199C140.904 282.325 140.789 281.704 140.743 281.497C140.605 280.6 139.225 278.185 129.796 274.735C125.335 273.102 120.758 273.24 116.918 275.149C112.479 277.357 109.122 281.796 107.213 288.029C107.144 288.397 106.776 288.65 106.385 288.65Z" fill="#000200"/>
<path d="M103.556 281.819C103.418 281.819 103.28 281.796 103.165 281.727C102.705 281.52 102.498 280.968 102.728 280.508C111.72 261.372 118.757 262.453 125.588 263.488C132.05 264.477 141.64 267.582 141.893 272.182C142.077 275.77 138.88 277.38 137.178 277.725C136.672 277.817 136.189 277.495 136.097 277.012C135.982 276.506 136.304 276.023 136.81 275.931C136.948 275.908 140.214 275.172 140.053 272.297C139.915 269.445 132.349 266.409 125.381 265.351C118.895 264.362 112.824 263.442 104.407 281.313C104.223 281.635 103.901 281.819 103.556 281.819Z" fill="#000200"/>
<path d="M101.923 269.33C101.785 269.33 101.647 269.307 101.532 269.238C101.073 269.031 100.866 268.479 101.096 268.019C109.191 250.792 117.125 252.333 123.495 253.575C124.231 253.713 124.944 253.851 125.634 253.966C132.027 254.932 141.64 258.06 141.87 262.66C142.053 266.248 138.857 267.858 137.155 268.203C136.649 268.295 136.166 267.996 136.074 267.49C135.959 266.984 136.281 266.501 136.787 266.409C136.925 266.386 140.191 265.65 140.03 262.775C139.892 259.923 132.326 256.887 125.358 255.829C124.645 255.714 123.909 255.576 123.15 255.438C117.102 254.265 110.271 252.908 102.774 268.847C102.613 269.123 102.268 269.33 101.923 269.33Z" fill="#000200"/>
</svg>
