<svg width="23" height="23" viewBox="0 0 23 23" fill="none" xmlns="http://www.w3.org/2000/svg">
<path d="M7.07107 15.5564C7.26623 15.7515 7.58301 15.7515 7.77817 15.5564L14.8314 8.50314L14.703 13.7764C14.6963 14.0522 14.9141 14.2816 15.1908 14.2885C15.4669 14.2952 15.696 14.0771 15.7027 13.801L15.8493 7.77836C15.8493 7.51107 15.7453 7.26005 15.5563 7.07108C15.3675 6.88228 15.1164 6.77816 14.837 6.77851L8.82664 6.92488C8.55051 6.9316 8.33254 7.16088 8.33908 7.43683C8.34545 7.71295 8.57491 7.93109 8.85103 7.92438L14.1356 7.78472L7.07107 14.8493C6.8759 15.0444 6.8759 15.3612 7.07107 15.5564Z" fill="#2D2D2D"/>
</svg>
